<mxfile host="app.diagrams.net" modified="2022-12-06T15:22:21.196Z" agent="5.0 (X11; Linux x86_64) AppleWebKit/537.36 (KHTML, like Gecko) Chrome/107.0.0.0 Safari/537.36" etag="s56kKr0QghFePl8QdyqG" version="20.2.3" type="github">
  <diagram id="W2D3C5S6PfBWSDxk54Ek" name="Page-1">
    <mxGraphModel dx="858" dy="470" grid="1" gridSize="10" guides="1" tooltips="1" connect="1" arrows="1" fold="1" page="1" pageScale="1" pageWidth="850" pageHeight="1100" math="0" shadow="0">
      <root>
        <mxCell id="0" />
        <mxCell id="1" parent="0" />
        <mxCell id="irRoewjukGV-PkNl7UgP-1" style="edgeStyle=orthogonalEdgeStyle;rounded=0;orthogonalLoop=1;jettySize=auto;html=1;strokeWidth=3;entryX=0;entryY=0.5;entryDx=0;entryDy=0;fontSize=14;fontStyle=1" edge="1" parent="1" source="irRoewjukGV-PkNl7UgP-2" target="irRoewjukGV-PkNl7UgP-6">
          <mxGeometry relative="1" as="geometry">
            <mxPoint x="222.5" y="-1.2600000000000051" as="targetPoint" />
          </mxGeometry>
        </mxCell>
        <mxCell id="irRoewjukGV-PkNl7UgP-2" value="" style="rounded=1;whiteSpace=wrap;html=1;fontSize=18;glass=0;strokeWidth=3;shadow=0;fontStyle=1;fillColor=#d5e8d4;strokeColor=#82b366;" vertex="1" parent="1">
          <mxGeometry x="40" y="63.74" width="300" height="146.26" as="geometry" />
        </mxCell>
        <mxCell id="irRoewjukGV-PkNl7UgP-6" value="" style="rounded=0;whiteSpace=wrap;html=1;strokeWidth=3;fillColor=#e1d5e7;strokeColor=#9673a6;" vertex="1" parent="1">
          <mxGeometry x="400" y="66.87" width="20" height="140" as="geometry" />
        </mxCell>
        <mxCell id="irRoewjukGV-PkNl7UgP-15" value="" style="shape=image;verticalLabelPosition=bottom;labelBackgroundColor=default;verticalAlign=top;aspect=fixed;imageAspect=0;image=data:image/png,iVBORw0KGgoAAAANSUhEUgAABCAAAAM+CAYAAADLl3AAAAAACXBIWXMAAB7CAAAewgFu0HU+AAAAGXRFWHRTb2Z0d2FyZQB3d3cuaW5rc2NhcGUub3Jnm+48GgAAIABJREFUeJzs3Xd4FOXexvF7UwgkQAKB0AmdIChIkSJSRcECVl7FSrErHguIIkePCAiICCoqYqMoAsejgA1UuhQRUJGOgNJLIIEEAsnO+8dCDGSzmWx2dnY338917QWZeWae3ya7m5k7zzwjAQAAAAAAAAAAAAAAAAAAAAAAAAAAAAAAAAAAAAAAAAAAAAAAAAAAAAAAAAAAAAAAAAAAAAAAAAAAAAAAAAAAAAAAAAAAAAAAAAAAAAAAAAAAAAAAAAAAAAAAAAAAAAAAAAAAAAAAAAAAAAAAAAAAAAAAAAAAAAAAAAAAAAAAAAAAAAAAAAAAAAAAAAAAAAAAAAAAAAAAAAAAAAAAAAAAAAAAAAAAAKY47C4AAAAAQEgoLqmUpJIXPC5cFi3ptKQjkiZLOmlHsQAAAAAAIDjUljRV0p+SzkgyvHiM9XvVAAAAAAAgqKyRd6FDzsd0v1cNwDZhdhcAAAAAIOiUlNTEB/v51Qf7ABAkCCAAAAAAFFSGpOM+2M8SH+wDQJBgEkoAAAAA3mgm6WZJiZJi5ZpsspSk6pLiTWyfLqmMXBNSAgAAAAAAFMhnMjf/w3y7CgRgDy7BAAAAAOBL7U22W2hlEQAAAAAAIHQlyfwdMC63qUYANmEEBAAAAABf6WCyXZqkVRbWASAAEUAAAAAA8BWzl1/8JOmMlYUACDwEEAAAAAB8xWwAscDSKgAAAAAAQMiqL/PzP7S2qUYAAAAAABDk7pe58OGEpAibagRgIy7BAAAAAOALHUy2Wyop08I6AAQoAggAAAAAvmB2/oeFVhYBAAAAAABCV12Zn/+hlU01AgAAAACAINdP5sKH42L+B6DI4hIMAAAAAIXVwWQ75n8AijACCAAAAACFxfwPAAAAAADAUrVlfv6Hy2yqEQAAAAAABLm+Mhc+pEoKt6lGAAGASzAAAAAAFIbZyy+WSMqyshAAgY0ZaAEAAAAUhq/mf4iTVE1SeUkJkorJddeMVEk7zj4M70oEAAAAAADBrJbMz//Qws32bSUNl/SLJGc+25+QK8R4TFIli54PAAAAAAAIQL1lLnxI0fnzP1wnaaXJbd09MiSNllTayicHAAAAAAACw8cyFxjMPdu+kaSfTW5j5rFTUl1LnyEAAAAAALDdTpkLCp6W69KJk27WOSUtkPS4XCMjGkmqIKmppFclZeaz7wOS6lj8PAEAAAAAgE1qyPxIha1ulmVIGinXPBKe9DOx/x999qwAAAAAAEBAuVfeXzqxVFKDAvT1t4l93lTI5wMAAAAAAALQh/IufBgjyVHAvqaY2O9nhXo2AAAAAAAgIO1QwYIHp1xzQXhjqIn9H5cU6eX+AQAAAABAAKqugo98GFyI/gab7COxEH0AsFiY3QUAAAAACDodCtj+Q0nDCtFfGZPtKhWiDwAWI4AAAAAAUFDtC9B2g6SHCtlfvMl2ZQvZDwALEUAAAAAAKKgOJttlSbpbrltuFkYdk+2OFrIfAAAAAAAQIKrJ/LwPn/qgP4ekFJP9mQ0qAAAAAABAgLtT5gOIS33QX22TfZ2UFOGD/gBYhEswAAAAABREB5PtFkha68f+/pCU6YP+AFiEAAIAAABAQZidgPILH/V3lcl2a3zUHwAAAAAAsFkVmb/84hIf9Bcm6bDJ/m71QX8AAAAAACAA3CFzYcBhuSaPLKwWJvvLlFTGB/0BsBCXYAAAAAAwy+zlF4vlCgYKq4vJdqvELTiBgEcAAQAAAMCsDibbLfJRf2bnf/jOR/0BAAAAAACbVZL5+R8a+6C/8pLOmOyvlQ/6AwAAAAAAAeB2mQsDjsg38z88ZrK/g5LCfdAfAItxCQYAAAAAMzqYbOer+R/uNNlupqQsH/QHAAAAAAACwCaZG5HwLx/0VddkX4aky33QHwAAAAAACAAVZT4QaOKD/l402dcO+eZyDwAAAAAAEAD+T+YCgWT55jLvrSb7G+6DvgAAAAAAQIB4W+YCgS980Fcrk30Zkhr6oD8AfhJhdwEAAAAAAl57k+0W+aAvs5NP/i7pDw/re0mqKSla0iFJSyWtLlxpAAAAAADAKgkyPyLh0kL2FSFXWGCmr0Ee9nOVm/ZHC1kbAAAAAACwUE/5b/6H60z25ZSU6GE/U9xs84uXNVWX9JWkdEnrJbX0cj8AAAAAAMCDt2QuFPjSB31NM9nXEg/7KCbpmJtthnlRT4RyT4i51Iv9AJBvZqgFAAAAELo6mGxX2PkfoiRdb7LtVA/rrpYU62b5dwWuSLpRUp0Llp3xYj8AAAAAAMCD8jI//0PTQvZl9vKLDEllPOxnvptttsm7P76+72ZfQ73YDwAAAAAA8OAWmQsFjqrwo6vHmOzrcw/7uDiPbR70sqZdbvbVzst9AQAAAACAPLwpc6HAbB/09bnJvm70sI8P3LT/W1JxL+qp42ZfaXLNMQEAAAAAAHzod5kLBZ7yQV/zTPSTLtdcEe5Ul3TKzTa3eFnPA2729a2X+wIAAAAAAHkoJ9ftLs0EEM180N+HJvqZ52H7r9y092biyXNmutnfwELsDwAAAAAAuHGDzIUPx+Sbu+s9aKKvMXls+7CbtvslVfOyFoekw2722dzL/QEAAAAAgDy8KP/N/yC57mxxMp++nnGz3a2Ssi5olyHpcpP99pR0IJ9+3T0yJS0t2FMEijZfJJUAAAAAQk99k+3+66P+jkr6Tz5tauX4fxlJ70j6TOef12RJul/SMpP9tpKUYLJtTuHyfDtQAAAAAABgwkjlPwpgr6SSPuwzXNIXHvrLkitY2KDcox4MSSmSuhWwz2hJrSV1zvFY5Wbfr1/Q5nJJcV49SwAAAAAAkK2V3J/k57zM4ToL+o2U9J6HfvN6bJTUyAf95zX/w6U+2DcAAAAAAHDjObkPIY5J6mBx350lLXLT94WPTZLulGv0hC9c7KYPX020CRRpDrsLAAAAABDQmkm6XdJFck0S+YOkaXJd7uAP9eQKI1rINVdDtKRkSVslLThbT5YP+3tU0hsXLJsr6Xof9gEAAAAAAIq4mco9AuJpWysCAAAAAAAhx90tOVvYWhEAAAAAAAgpDZQ7fEiV7+aXAIo0JlIBAAAAAJcObpYtk2/nmACKLAIIAAAAAHBp72bZIr9XAQAAAAAAQtpe5b4Eo7WtFQEAAAAAgJBST7nDhzRJkXYWBYQSLsEAAAAAAPeXX/wk6Yyb5TFyzRfRwMqCAAAAAABA6Jmq3CMgns+n7WlJ0X6pDgAAAAAAhIS/lTuAuMJNuyS57ophSFrgt+oAAAAAAEDQq6zc4cNJSVFu2n6Wo83l/ioQAAAAAAAEv5rKHUCsdNPumhzr3/FbdQAAAAAAIGTs1/kBxJcXrK8v6fDZdSsklfBrdQAAAAAAICSM0vkBxPIc626XdPDs8jli4kkAAAAAAOClcEn/0/khxGpJu3T+ZRfhdhUIAAAAAABCR1dJcyVtl5QuaaOkKZIus7MoAAAAAAAAAAAAAAAAAAAAAAAAAAAAAAAAAAAAAAAAAAAAAAAAAAAAAAAAAAAAAAAAAAAAAAAAAAAAAAAAILilpKQYdtcAAAAAAABC2IEDB4xLLrnESE9PJ4QAAAAAAADW6NevnyHJePHFFwkgAAAAAACA761du9YICwszJBklSpQwdu3aRQgBAAAAAAB8q127doak7EfPnj0JIAAAAAAAgO/MmDHjvPDh3GPRokWEEAAAAAAAoPDS09ONxMREtwFEkyZNjKysLEIIAAAAAABQOC+99JLb8OHcY+LEiQQQAAAAAADAe3///bcRHR3tMYAoX768cezYMUIIAAAAAADgnV69enkMH849nnzySQIIAAAAAABQcMuWLTMVPkgyIiMjjc2bNxNCAAAAAAAA85xOp9G8eXPTAYQk45prriGAAAAAAAAA5n344YcFCh/OPb7++mtCCAAAAAAAkL/U1FSjYsWKXgUQSUlJxunTpwkhAAAAAACAZ88884xX4cO5x9ixYwkgAAAAAABA3rZt22YUK1asUAFEXFyccejQIUIIAAAAAADgXo8ePQoVPpx7PPDAAwQQAAAAAAAgt/nz5/skfJBkhIWFGevWrSOEAAAAAAAA/8jMzDQaNmzoswBCktGhQwcCCAAAAAAA8I833njDp+HDucfMmTMJIQAAAAAAgHTkyBGjbNmylgQQNWrUME6ePEkIAQAAAABAUffoo49aEj6ce7z88ssEEAAAAAAAFGXr1683wsPDLQ0gYmJijN27dxNCAAAAAABQVF155ZWWhg/nHnfeeScBBAAAAAAARdEXX3zhl/BBkuFwOIzly5cTQgAAAAAAUJRkZGQYtWvX9lsAIcm47LLLDKfTSQgBAAAAAEBR8corr/g1fDj3+OijjwggAAAAAAAoCvbt22eUKlXKlgCiUqVKxvHjxwkhAAAAAAAIdffee68t4cO5x6BBgwggAAAAAAAIZT///LPhcDhsDSCioqKM7du3E0IAAAAAABCq2rRpY2v4cO5x4403EkAAAAAAABCKpk2bZnvwkPPxww8/EEIAAAAAABBK0tLSjKpVq9oeOuR8NGrUyMjMzCSEAAAAAAAgVAwZMsT2wMHd46233iKAAAAAAAAgFOzcudMoXry47WGDu0d8fLyRnJxMCAEAAAAAQLC79dZbbQ8aPD0ef/xxAggAAAAAAILZwoULbQ8Y8ntEREQYmzZtIoQAAAAAACAYZWVlGY0bN7Y9YDDzuPbaawkgABs47C4AAAAAQPA7c+aMsXv37kLvp2bNmh7Xly9fXqtWrSpUHw6HQzVq1OBcCAAAAACAIszj6IWKFSsyegEIUmF2FwAAAAAAAEIfAQQAAAAAALAcAQQAAAAAALAcAQQAAAAAALAcAQQAAAAAALAcAQQAAACAoOFwcPdMIFgRQAAAAAAAAMsRQAAAAAAAAMsRQAAAAAAAAMsRQAAAAAAAAMsRQAAAAAAAAMsRQAAAAAAAAMsRQAAAAAAAAMsRQAAAAAAAAMsRQAAAAAAAAMsRQAAAAAAAAMsRQAAAAAAAAMsRQAAAAAAAAMsRQAAAAAAAAMsRQAAAAAAAAMsRQAAAAAAAAMsRQAAAAAAAAMsRQAAAAAAAAMsRQAAAAAAAAMsRQAAAAAAIGg6Hw+4SAHiJAAIAAAAAAFiOAAIAAAAAAFiOAAIAAAAAAFiOAAIAAAAAAFiOAAIAAAAAAFiOAAIAAAAAAFiOAAIAAAAAAFiOAAIAAAAAAFiOAAIAAAAAAFiOAAIAAAAAAFiOAAIAAAAAAFiOAAIAAAAAAFiOAAIAAAAAAFiOAAIAAAAAAFiOAAIAAAAAAFiOAAIAAAAAAFiOAAIAAAAAAFiOAAIAAAAAAFiOAAIAAAAAAFiOAAIAAABA0HA4HHaXAMBLBBAAAAAAAMByBBAAAAAAAMByBBAAAAAAAMByBBAAAAAAAMByBBAAAAAAAMByBBAAAAAAAMByBBAAAAAAAMByBBAAAAAAAMByBBAAAAAAAMByBBAAAAAAAMByBBAAAAAAAMByBBAAAAAAAMByBBAAAAAAAMByBBAAAAAAAMByBBAAAAAAAMByBBAAAAAAAMByBBAAAAAAAMByBBAAAAAAAMByBBAAAAAAgobD4bC7BABeIoAAAAAAAACWI4AAAAAAAACWI4AAAAAAAACWI4AAAAAAAACWI4AAAAAAAACWI4AAAAAAAACWI4AAAAAAAACWI4AAAAAAAACWI4AAAAAAAACWi7C7AADB40R6qpHlzLK7DAAAEMJiS5bxuN5pOJVy4qjhqU3JEqUUHh7h8GlhAAqNNyVQhKWmpRipJ47qeFqKjqen6nhaik6kpyo1LUUn0lJ1PD0le11WVqbd5QIAgCLgjWc/9bi+ZGy0eg/q4bFN6Zg4Va9USwnxlVWhbGVViK+kCvGVVTK6NOc/gI14AwJFyIn0VGPzzvXavPN3bdqxXkdTD9tdEgAAwHl8EUDkJbp4yewwIqFsZVWvVEt1qiUxWgLwEy7BAELY6TOnjR27N2vTzt+1eed6PTfuQRnyOGIRAAAgZKWfOqEde7Zqx56t2ctiSpTUJ1+/azRJaqV6iQ0VQRgBWIY3FxBiklMOGWs3rtCmneu1/e9NOpN52u6SAAAATLNyBER+oovH6OK6zXRpUivVr9FIERGRnC8BPsQbCggR+w/vNuYvn63VG36Sk4kiAQBAkLIzgMipRPFoXVynmZo2aK0GtRorLCyMcyegkLgEAwhyu/ZuM+Ytn63h7w30+eUVkZGRii4RrejoGEVFRSkyMlLhYeE+7QMAAKAgIiIilFSvQZ7rU4+n6uChA8rMLNwE2idPpWvV+iVatX6JqiQk6o/ta42GtS8lhAAKgTcQEKQ27/jdmLditrbsXO/V9mFhYapUsbIqVKiomOgYRUdHnw0bXIFDdHS0IiMifVw1AACAZ4klmnhcX6lKBa3Y9p3HNoZhKPV4qpKTj+jo0WQl53icOHHc69rqVG+g7h1uV80qdTmPArzAGwcIIk7Dafy+ZbXmLZ+tv/ZtL/D2ZeLKKDGxhmpUr6nq1aqrWLEoC6oEAADwni8CCE/OnDmj5KPJ2rN3t7Zs3aQ9e/fIMAo2ivSSei10ffueqliuKudTQAHwhgGCRHLKYWPK3Ana9tdG09sUjyqu6tUSVSOxhhITayq2dKyFFQIAABRefgFE5aoVtXzrtz7rLy3thLZs26LNWzZpz97dpsOIMEeYWl7STt3a3qIypeM5rwJM4I0CBIG1G1cY07+dpPRTaabaly+foMuatVT9ekkKCwuzuDoAAADf8XcAkVNaWpq2bNusLVs3afcec2FEZESkrm5zo7q06aEwBxNVAp7wBgECWMbpU8as+R9rxW8LTbWvVrWaLmveSjVr1LK2MAAAAIvYGUDkdPx4qn5asUzrN/xuKoi4qHYT3X39I4opUZJzLCAPvDmAALVr33bj4y/f1KGj+/NtW6d2XbVs3kqVKlX2Q2UAAADWCZQA4pwjyYe1ZNlibdu+Nd+28XHl1e/GJ1W1Yg3OswA3eGMAAcbpdBo/rJyrrxbPUJYzK892YWFhuqhBQ7Vo1lLxZeP9WCEAAIB1Ai2AOGfvvj1atGSh9uzd7bFdZEQx9by6j1pd0p5zLeACvCmAAHIi/bjx4RfjtGXXHx7blS9XXtd2665y8eX8VBkAAIB/BGoAcc72Hdu1ZOkiHT5yyGO7y5t01i1d7lFERCTnXMBZEXYXAMAl7eQJ441PXtaeg7s8tmt6aXO1b9tB4eHhfqoMAAAA59SuWVu1atTSqtUrtfSnxXnOD7Fs3Q/afWCnjqYeMbhLBuBCAAEEgFMZJ403pw/3GD5ER8eo21XXMMEkAACAzRwOh1q2aKVKFStp7tezlX4y3W27Xfu2a+yUF3Qs9YgRRwgBiPvzATY7fSbDmDjrVe3auy3PNrVq1ta9d/YhfAAAAAgg1asl6q477vU4EfjR1CN6e8ZIpZ9Ky/9WGkCII4AAbJSZecZ4//PXtfWvDW7XR0REqFOHK3VTj1sUHR3t5+oAAACQn1IlS+m2W3rp0sZN82yz99DfmvTf15SZeYYQAkUaAQRgkyxnlvHx7De14c91btdHRETo5ht6qmmTZn6uDAAAAAURHh6uzh276Nqu1ysyItJtm61/bdCUuW/LaTgJIVBkMQcEYAOn4TSmzn1H6zavcrs+LCxM3a+9QdWqVvNzZQAAAPBWg6SLFF82Xp/991NlZGTkWr9m43LFlSprQ2VAYGAEBGCD/87/WD+vX+J2ncPh0LXdrletmrX9XBUAAAAKKyGhgnpcd2Oedyz7cdVXWrDqa0ZBoEgigAD87Peta4zFv8zLc/3VV3ZT/bpJfqwIAAAAvlS9WqK6drkmz/X/+2Gq1m1aRQiBIocAAvCjjNOnjJnzPsxzfacOV6pRw4v9WBEAAACs0CDpIrVr28HtOkOGPvnmXR1PSyGEQJFCAAH40ddLZulo6mG369q2uYIJJwEAAELIZc1b5nl3jJOn0jV74XQ/VwTYiwAC8JPd+3caC1d/63Zdo4YXq9VlbfxcEQAAAKzWqcOVqlO7rtt1K39bpJ17tzEKAkUGAQTgB06n05j+7SQ5nVm51kVHR6tDu042VAUAAACrORwOXdetu+LiyuRaZ8jQzHkfcWtOFBkEEIAfLF07X7v2bXe7rmO7zioeVdzPFQEAAMBfIiIi1Kl9Z7fr/tq3XSt+XejfggCbEEAAFjt2PNmYs+gzt+sSq9dQg6SL/FwRAAAA/K1Wzdp53mZ9zqLPlH4yjVEQCHkEEIDFvvzxE53KOJlreUREhLp0vtqGigAAAIKYw+4CvNexfWeFh4fnWn4iPVVfLZlhQ0WAfxFAABZKOXHUWLNxudt1rS9ro7jYOD9XBAAAALuUiSuj5k1buF23dM33Opi8n1EQCGkEEICF1mxYLqfhzLU8vmw5tWje0oaKAAAAYKdWl7VWyZiSuZY7DadW/7HUhooA/yGAACz0cx6/RK64vJ3Cwnj7AQAAFDWRkcXU/oqObtflNXIWCBWcAQEW2X94j/H3/h25lpcoXiLPCYgAAAAQ+hokXaQybm7LeeDIXu05sIvLMBCyCCAAi+Q1+qF+vSRGPwAAABRxSfUbuF3OKAiEMs6CAAs4Dafxy4Zlbtdx200AAADUr5dXALHCz5UA/kMAAVhgx+6tOnLsUK7lsaVjVaVyVRsqAgAAQCApF19O5eLL5Vp++NgB/bXvTy7DQEgigAAskNcMxg2SGvq5EgAAAASqvEdBcBkGQhMBBOBjTqfTWLvJ/dC5i7j8AgAAAGcl1UtyuzyvY0kg2BFAAD52MHmv0k6eyLW8QkJFlS0bb0NFAAAACERlypRVQvmEXMuTUw5r/+HdXIaBkEMAAfjY3kN/u13OrTcBAABwodq16rhdfvjYQT9XAliPAALwsT0H/3K7vHz58n6uBAAAAIEutnSc2+XHjif7uRLAegQQgI/ty2MERPl4AggAAACcr1SpUm6XH0slgEDoIYAAfOzAkb25lkVERCgurowN1QAAACCQlSyZRwBx/IifKwGsRwAB+Ji7CSjLlCkrh8NhQzUAAAAIZKXzGgHBJRgIQQQQgI+dOn0y17LiUVE2VAIAAIBAFxlZTFFujhUJIBCKCCAAHzqTedrIysrMtbxYMQIIAAAAuFfKzWUYBBAIRQQQgA+dysg9+kGSihUr5udKAAAAECzczQORcfqU0k+lGTaUA1iGAALwoZMZ6W6XR0YSQAAAAPhCKM6r5W4EhCSlnjjm50oAaxFAAD7kdDrdLg+9X5MAAADwleiYGLfLj6el+LkSwFoEEAAAAABgo5ho9wFEahojIBBaCCAAAAAAwEZ5BxCMgEBoIYAAAAAAABvFcAkGiggCCAAAAACwUVQet2w/cybDz5UA1iKAAAAAAAAb5XVnD6fBXTgRWgggAAAAAMBOeQQQBgEEQgwBBAAAAADYKI/8QRIBBEILAQQAAAAA2MghRkCgaCCAAAAAAIAARACBUEMAAQAAAAAALEcAAQAAAAAALEcAAQAAAAAALEcAAQAAAAAALEcAAQAAAAAALEcAAQAAAAAALEcAAQAAAAAALEcAAQAAAAAALEcAAQAAACBgRERGeFwfHh7up0oA+BoBBAAAAICA0fHqth7XV65awU+VAPA1AggAAAAAAePmO67Lc11YWJgefeY+P1YDwJcIIAAAAAAEjM7d2qlxs4Zu1/V/9n5d0bmVnysC4CueL7ACAAAAAD8qFlVMXy6Zqq8+n6/RL7yh0xlndEmzhmreurH6Pnan3eUBKAQCCASViRMnGn379lV4eLjD7loAAABgDYfDoetuvkrX3XyV3aUgD5MmTTLuueceRUZGclwO07gEA0Hl/vvvV/PmzbV48WLD7loAIBQdO5qindv/VmrKcbtLAQAEsKeeekqXXHKJvvvuO47LPYuX1ErS1ZJukXSvpJ6SukhqLCnStspswAgIBJ21a9eqXbt26tmzpzF69GglJiaSuoawXX/+rXlzF2rrxj91YN8hHdh3UAf3HtKxoykqE19GFSqVV0KlcqpQKUENGtXVVdd3VOVqFe0uGwh4mWcytWLJL5o3d4H+WLdJB/Yd0sH9h5VxKiO7TfESUUqoWF4VKpXXJU0v0lXXd1TzNpcqIoJb4AEApI0bN+rqq6/W9ddfb4wZM0b16tUr6sflYZJaSOoqqb2kRpLK57PNKUlrJH0h6SNJhyysz3ZF/QWC4HNewlqiRAk9/fTTGjRokGJiYmx/Pe8/vMcY9t7TuZY3vriJunS+2oaKgtO2TTs0e+a3+m72j9q0fmuBt2/UpIG69uik7j27KrFWNQsqBILXj98s0RfTv9aP3y3R8ZQTBd4+rkysOnZtqxtvv1btu7SxoEIAKHqSk4/og8mTci2/vEln3datn+3HuO7ExsYaKSkp2V8XK1ZM/fv315AhQxQbGxuQNVuovqQHJN2p/AMHT05LelPSEEnpPqgr4BS1FwaCn9shXlWqVNHIkSPVq1cvhYWF2fa6JoAonD1/7dOr/3lLX0z/Wk6n87x1tatXV5WEBFWpUEGVExIUHxurQ0ePau/Bg9p78KD+3r9fO/fsOW+biIhw9bznBv1r8IOqUKkwvwuA4PfLil81/LmxWr183XnLY0qU0BXNm6tG5cqqVL68KpUvr/i4OB0+dkz7Dh7UvkOHtGPPHi395Relnzp13ratrmimZ4c/oSbNG/nzqQBAyAnGACIuLs44duxYruUJCQkaNmyY+vTpUxTmbWshaZhcl1P40ja5Ltn408f7tV2ovyAQejxeY9aqVSuNGzdOLVu2tOW1TQDhnZRjqRo/fKImT5yh0xmnJUkR4eG6onlz9ejYUd07dVKVChXy3c+O3bv1xQ8/6Msff9SKX3+VYbheLiWii6vPI3fokYF9FVMy2tLnAgSav3bs1svPjNF3cxZkLytftqyu79BB13fsqE5n1WUPAAAgAElEQVQtW6p4VFS++zmZkaEfli/XnAULNHfhQh3OcdB5zY1d9PwrT6pK9UqWPAcACHWhFECcc+mll+r1119X+/btA7L+QqomaYykW020PShpmqSlknZK2iPXvBDVJbWT1FuSu+uH90hqLenvwpcbOELxxYAQ5nA4jHMnlR7a6K677tKIESNUpUoVv77GCSAKbtP6rep7y+PavWuvJCk8LEx39+ihIQ89ZCp0yMuuvXv10oQJ+uSrr7JHU9S7qLbenzVO1WtW9UntQKBb/P1yPXLnwOwJJWNLltSAvn316B13qISJ0CEv6adO6fXJk/XaRx/peFqaJKlM2Vi9/cmrat2+hU9qB4CiJBgDiDJlyhhHjx7Nt92tt96q0aNHq0aNGgH5PLxwj6RxkmLzafe9pDckfS0p00O7kpImSrrdzbpvJXXzosaAFap3wWCm0RDlcOT/uWUYhiZPnqz69etr2LBhxsmTJ5mZN0B9N2eBbup4T3b4cOOVV2rt55/rnRdfLFT4IEmJlSvr/Zdf1qrPPtNVl18uSdqyYbuuv/wOLVuwstC1A4Hu/Ten6d4bHlFqynGFh4XpkV69tOGrrzSgT59ChQ+SFF28uJ67/35tnDtXD/TsqbCwMB1NTtGd1z2oKRNn+OgZAAACmZnjckmaOXOmkpKS9PzzzxsnTpwI5uPy4nKNZPhInsOHw5Juk+vcc7Y8hw+SayREXt/MrpKuKFCVAS4UAogwSS0lvSDpR7mGuByWtFyuxGimpA8lfSZpnqR1klIlLZM0QIWbJAQB7MSJExo8eLAaNGigWbNmBfOHXUh657WP9MD/Pam0E+kqFhmp9156SdPHjFH9mjV92s/F9eppzoQJGvb44woLC9Oxoym6u/vDmvreTJ/2AwSSwf2H6aUBo5WV5VSZ0qU1Z8IEvfbMMyoXF+fTfsqXLavxgwfrf+PHq3RMjDIzs/T848P18qDXfNoPACC4nTp1Si+//LLq1aunyZMnG06nM9iOzRPkOtfslU+7TXKdm35mcr+95boDxm0e2rgbGRG0gjmAqC/pNUn7Ja2Q9KKkjjIXKBSX1EbSKEm75bp+hwvDg4DZpDWnnTt36pZbblH79u2NtWvXBtuHXUj677Q5GjH4dRmGoXJxcfpm4kTd3aOHpX0+3aeP/jtunErlOEmaP3ehpX0Cdpjw6gfZAVv9mjW1dNo0dW7d2tI+u15xhZZMnara1atLkt4bN1mT32UkBACEMm+Oy/fu3au7775brVu31ooVK4LluLyipCVyzcfgyR9ynWOanTiynaRJkvIblnixyf0FhWAMIFrINZJhk6QnVPgRDMUkPSnpV0m1CrkvWMybD7pzFi1apGbNmun+++83Dh48GCwfeCFnzcrfNOiRoZKkapUqaem0aWrbtKlf+r6mXTstnjJF5cuWlWEYerzPYG3dGHKTC6MI+/6rRRr9wpuSpKRatbR4yhTVORsKWC2pVi0tmTIlexTTf54eqaU/crkTAISqwhyXr1y5Uq1bt9add95p7N69O5CPyyvINfKhXj7t9km6RlL+k2K4lJY0RebOxxNM7jMoBFMAUU3SDEmrlP9tTg5KGivpZknN5EqtGso1gccIuUZNXKiOpMVn+0GIcjqdmjhxourWratXX33VOH36dCB/4IWcfXsO6L6eT+h0xmmViIrSrNdfV82q/p0Q8qLatTV9zBhFRkQo7Xia+t7yuFKOpfq1BsAKWzf+qf69n5PT6VR8XJz+N3684kqV8msN8XFx+u+4cYorVUqZmVl6+I4B2rHtL7/WAAAIDoZhaOrUqapfv76GDh0aiPO2hct1OX+DfNoZcl0mUZBfeD3lmvvBjLxvNRKEgiWAuEfS78r/NiffS+ohqYpcoxo+l+uamgOSNsg1J8RzkupK+tTN9lXkmoEUAaowSWtOKSkpevrpp9WoUSPNmTMn0D7sQtagR4bq8MEjkqSJL72kJklJttTRtmlTvTZokCRp159/a8jjI2ypA/ClQY+8pLTjaYqMiND0MWNUq5o9eXrdxERNHTVK4WFhSjmWqucee9mWOgAA1vLVcXlaWpqGDBmipKQkzZgxI5COy1+QuQkgJ0laVMB9X1uAtmsKuO+AFugBBDON4jy++qA7Z8uWLbr++ut11VVXGX/88UcgfeCFnBVLftHC75ZKkvrfdZd6du1qaz3333qr7rnhBknS7Jnf6o9fN9laD1AY381ZoNXL10mSnnvgAbVr3tyr/Wz8809NnDlTE2fO1IKV3l8+0aVNGz3Tr58k6aeFq7Rw3jKv9wUACEy+Pi7ftWuXevbsqXbt2hlr1qyx+7i8g6TBJtqlSBroxf4Lcn3k517sP2AFcgDBTKPwm3nz5qlx48Z67LHHjOTkZLs/8ELSK8+PkySVi4vTkIceyrNdZlaWPvj88+yToKlz5pjuY9Xvv2dvN3HmTG360/P8DsMef1wlo6NlGIZGDhlvuh8gkGRlObNfv5XKl9e/7r7b630tXr1aj738sh57+WV9+L//Faqup/v0UUJ8vCTplSHj5HQ6C7U/AEDRsHjxYjVv3lz9+vUzDhw4YMdxeTm5/ghu5lx5qry7RGKXyXarJM33Yv8BK1ADCGYahVu+TlpzyszM1BtvvKE6derozTffNDIzMwkifOS7OQu0dtVvklx/nS0dE5Nn24jwcO0/fDj7JKjv889r3JQp+fbx1759uv6hh7K3e+uTT1S9cmWP25QvWzb7ZG3R/J+0YvHqAjwrIDDMnPyFtm/eIUl64ZFHFF28uM0VucSUKKHnH3xQkrTxty368rNvbK4IAOBLVh6XO51OTZo0SXXr1tXo0aONjIwMfx6Xj5Pk+SDyH+962cfHJtqkSvL+rwoBKhADCGYaRZ6s/KA7Jzk5WY8++qgaN26s+fPnE0L4wOR3pkuSalSpovtuzW8qF2lQv37q2LJl9teDX39dq37/Pc/2ZzIzdefAgTp2/LgkqURUlD4ZPdrUidgT99yjcnFxkqSP3zE7kAoIHJ99/IUk110o7rH4drYF1ffmm7PnojhXJwAgNPjjuDw1NVUDBgxQw4YN9eWXX/rjuDxJnkfK5/STXPMUemO2pA89rN8hqb2kzV7uP2BF2F3ABZhpNIBMmjTJMAxDhuF6r7v719/rhgwZYslzdeePP/5Qly5d1L17d2PMmDGqW7eu9Z+yISjlWGr2yIK7e/RQscjIfLcJCwvT5BEj1LxnTx04fDg7YFg1Y4bbWf2HjB+vlb/9lv31mGeeUcM6dUzVVzI6Wrd07ap3pk/XwnlLlXEqQ1HF8xskBQSGwwePaN3P6yVJva69VmFhgfV3hYjwcN3WrZuGT5yon5etUcqxVMXGlba7LEDShcce5y+Tx+MS5blOOdpkr5O7Y53cNZzbsCD9/bOd++Om3Nu56beA/eXs88LnV+jvlYnavf3ZnP89dvN9yOt7pZzb5VWn5+cgE/2dOHFCG9fsyPFEXf89fbCYJk2aZOT3vOxYN3z4cPnLtm3b1KNHD3Xp0sUYO3asGjVqZNVx+WCZ/yO9t6MfJNeroo9co/7vlVRbUpakrXLN+fCBpFOF2H/ACrQAgplGA0i/sxOIFXWzZ8/Wt99+qwEDBhjPP/+8YmNjQy6I8PQLPPeBSf4HUDm3mztrnjIzsyRJ3Tt2NF1TQny8Ph4+XNc8+KCcTqd27d2r+/79b80cO/a8dt8uWaLXJ0/O/rpn167qe/PNpvuRpBs6ddI706crPe2kZk7+Uq3btzj7PHI/P48Hf24OMv/ZLve+sv/1cGDo6WDH3c/G00Gm9wd/557ihdtZdaDs/nvl/uAv//7y+l7l2k6595V7O/8cKJv92Wz8fUv23ArdO3VSIOreqZOGT5yozMws9bmpv6rVqHLB9/jsP4X9XqlgJxWefzb5f/+Vz/s6r+fg/nXsub9/3ntmvle59+X+s8J87Tn7LUjt7r/Hbp5Drs9O779Xubdz/zyBYPGDVupdU6P1i4b58+ercePGeuSRR4yXXnpJ8fHxvjwuryPzcwGekjTLB31+KM8jIUJOIJ1IdZD0g/JPnFIk1VDBRyn8IqmpybZXKcQm+/CGw+EIuN/Sdh84JCQkaNiwYerTp4/Cw8NzvX/2H95jDHvvae3586C+/XRZ9glNRHi4ikUWM3fwJ88Hyv9s7+FgrgAnT/5So0oVbf766wJv99KECRr27j8B85iBA/XoHXdIkvYePKgWt96qw8dcHwe1q1fXyunTVcrDHBPuZGZlqVrHjkpOSSlwfUAgqF29ujYUYMLWvLw7Y4b6DxsmSfq/bt00+ZVXCr1PSap99dXavX+/T/YVSvwxfBlA8MgOG89fGLCfFXYfl5ctW1YvvviiHnroIUVGRvrim/S+XKMSzPhWUjcf9FnkBMoICH/NNGomgAi5mUa9ZfeHSiA6ePCg7rvvPk2YMEELFy40OnTo4PbDLivLqfQTF46aSvNDhYGr6xXe3d128IMPaskvv2jxatdlHM+OHavWTZqoSYMGunvQoOzwIapYMU0bNarA4YPkCoiubttWn371lVc1Ana7pl07u0vw6JorrtDEmTPtLiPg8HsWgBl8VriXnJys/v376+2339Y333xjdOvWrTAhRLTyv/tiTsys7KVAuViUmUYRVNauXasOHTropptuMnbv3p3rt0Jg5tT2ql21qlfbhYeFacrIkSpfpowk6fSZM+o1YIAGvvqqlvzyS3a7V558Upc2yG/6mLzV8rI+IBDUqV6Q24n7X53ERLtLAACEqI0bN6pbt27q1q2bsX37dm/Tmk6SCnIbKQIILwVCAMFMowhKsbGxatu2rSpUqJB7JQlELpXdfZ9MqliunD4aMSJ7COLOPXv05rRp2et7dOqkh283e8leHvUlcPMbBK/K5cvbXYJHlQK8PgBAcIuJiVHbtm1VpUoVb3dxTQHabpdrskh4IRAuwWCmUQSVsLAw9e7dW8OHD1eFChUcTz75pN0lBYXCnuBf2bq1Bvbtq5GTJp23vHqlSpr40kuF2rckVSlEQALYrVI+76/tf/2lPQcP5rufrbt2Zf//YHJy9qVPnpSMjlbTiy7yXB8BBADAIr169dKoUaNUtWpVx+DBg73dTUHmc2D0QyHYHUAw0yiCSps2bTR+/Hg1b97c8f777+fdMEAnC7KTL/5Ce+8NN2j0Bx9kz/ovSf957DG3t+YsKE6QEMwqxMd7XP/Wp5/qrU8+KdA+F6xcqQUrV+bbrklSklZ+9lmh6gMAoKCaNm2q8ePHq23bto5PCvg77gIN5LrJgVkLCtNZUWf3JRjPSgo32XahpHTrSgHyVqVKFU2bNk0//fSTo3nz5vmmC8QPuZ3MyCjU9plZWbr3uefOCx8kacTEiTqRXviPhpOnGACF4JV64oTdJXiUmla0J+EFAPhOQkKC3nvvPf38889q27atLw67mxWwff7pPPJk5wgIZhoNcEOHDpXkuvXPuWvvc/7rbpnV7Z944gmdPHnSkufrTvHixfXUU0/p2WefVcmSJc1/wJFA5LL3wAE1qFXL6+2HjB+vlb/9lmv5lp071X/YMH1w9taB3tprYng6EKj2HTqkRnXr5rm+Qny86tWoke9+jh0/roNHjkiSSsXEmBoZlFg5/zmk9/H+Cinn/47+Z5k8/i5XnuuUo032ernbV+59uOsz177c9pl3Pfn2ebYDd8/N07HOuT6PHj6m/Xs9vycqV6uohArl3PRpru7surz8meTXZ577kqefibn6c/5svP+ZmHsdZA9Yze91kN2s8K+DvPo8eTJd635be/7+JSVWrq1GdZr6/Ji6oO3dLXvuueeUnJwsf4mMjNRjjz2mf//734qLi3Pcd999vtp1nQK03XP2AS/ZGUAw02iAGzJkSMCdRsfGxhr+CiBuuukmvfrqq6pVq5ZjWAFPbrN/VeX4hZzrl6aXBwXK0cbdgZqnfbjv0027XH0q1zIzBwVOp1O7/twtSdp76JCZb51b3y5ZorEff5z99a1XX61KCQkaP2WKJGna3Lnq2LKl7ure3es+9uWor+UVzRUe7hogZvrAogAHdA5HzteIudeBp4NZUweFbl9DBTsozHnQ5LFPKdey3H2aPRDKr8+8vwfufiZmv1d59plXXwXu033d7p+n+77S007q2UddQXF+Adoz/frpmX79PLaRpHdnzFD/s59317Rrp8mvvJLvNmbkfP9Pnj1BUcWjTH32nPezKcDP7vzX4z+fY+YOwnPsK8/25urOv08334OC9KmCnkjl97r18LkBn3n/zWl6acBoj2369b9LfR+9w08VIRAkJx/RB5Mzcy2/vEln3datX0C+ERMTEw1/BRBdu3bV66+/rqSkJMdrr73m690X5FZSjH4oJDsDCGYaRYH540CoUaNGGjdunDp37uz4/PPPvdpHlVoJemzEP9ObNL64ibp0vtpXJQYNwzBUJ7aFMs9kej3CYO/Bg+r7/PPZ98CuVa2aJrzwgkpERemnNWu0+o8/JEmPDx+uyy6+WPVr1vSqn3MT9JUpG6sZ8ybl0xoIDC88NVKnM06bmmDSTnsOHJAklYotqfZd2thcDQDAF/xxXF63bl2NHTtW1113nSMpKcmqbmIL0JYAopDsnAOCmUZRYFZ+0JUtW1Zvvvmm1q1bp86dOwdk0hxsHA6HqlSrJEn6dXPB73Cb5XTq7kGDdPjYMUlSschITR05UqVjYhQZEaGpo0apdEyMJCnt5En1GjBAp7yca2Ldpk2SpKqJXt++CfC7ukmuy5oWrlplcyWeLfr5Z0n/1AsACH5WHpeXKlVKo0aN0vr163XddddZfVweU4C2gf0LNwjYFUAw0ygCRnh4uB5++GFt3bpVjz76qCMiIoLwwYc6XH25JOm7pUuVcfp0gbYd+vbbWvLLL9lfD//Xv9SsYcPsr2tWraq3X3wx++v1W7fq6VGjClxjckqKFp89QTpXLxAMrry2vSRp2Zo1Sk5Jsbka9w4cPpw9f8u5egEAcMfhcKh3797aunWrBg4c6IiKivLHcXlBZnIOlVH51SV9JddNHtZLaumvju0KIJhpFF7xddLasWNHrV27VhMmTHDEx8cTPFiga/dOkqQT6emmbul3zoKVKzVy0j+XQlzbvr0eu/POXO1uueoq9bvlluyv35s1S7PmzStQjV8tWqTMrCxXvT06FWhbwE5drnOd0GdmZenrxYttrsa9OQsXZl9C1eXaDvYWAwDwGV8fl7du3VorV67Uhx9+6KhYsaI/j8uPmGyXKWmflYX4SYSkH+SaEqGEpIaSxvirc7sCCGYahVd89UFXo0YNzZo1SwsWLHBccsklBA8WuqxtM5Up67q07ssffzS1zcEjR3RPjltuVqlQQe+99FKe7V8dOPC8OwA89OKL2rF7t+kav/jhB1c/1SupUZMGprcD7HbxpRepUpUKkqTP58+3uRr3Pv/+e0lSYq1qqndRbZurAQD4iq+OyytXrqwpU6Zo2bJluuyyy+w4Lj9gst0+Sc58WwW+G5X7fPyMvzq3K4BgplHYIjo6WkOHDtXGjRt1yy23EDz4QUREuK46Owrik6++yp6MLi9Op1P3PPecDhw+LEkKDwvTlJEjFR8Xl+c2JaKiNG3UKEUXd91YJzUtTXcOHKjTZ/L/LN3055/65uxfjq+5sYup5wQEkmtuvFKS9PXixVqzYYPN1Zxv5W+/6YflyyVJ197E+wsA8I+oqCg9++yz2rx5s+666y5HWFiYXcfmZud1MP/XrcIrLqmLpEgL9t3VzbKlFvTjll0BBDONwiuFSVpvv/12bd68WUOGDHGUKFGC8MGPHnzyXkVEhOtURob+M2GCx7aj3n9fP65Ykf31vx9+WJdfemm+fSTVqqXXn302++vVf/yhwePG5bvdkDfeUJbTqeIlotSvf+5LPIBA9+BTvRUdU0KGYejZsWPtLuc8g19/XZJUsnSM7vvX3TZXAwDwpcIcl99www3asGGDRowY4ShVqpTdx+VLZW5kg7/qrCRphaR5klZLqujj/V/pZpnfhlHaFUAw0yi84s0HXdOmTbV06VJ9+umnjmrVqtn9AVck1aqbqJ733CBJmjJ7tv7Yti3PtoPuu08Zv/6a/Rh0332m+7nnhhvO23b00097bL983TrNPntZyL0P3a6KlRNM9wUEioSK5dSv/12SXHfDmLdsmc0VuXyzZEn2JLIPPdVbZePzHsUEAAg+3hyXN2zYUPPnz9cXX3zhqF27dqAclx+T9LOJduWsLkRSoqQlkhqf/foSSV/IdyMh6ij31QjpcgUefmFXAFEUZxqFnyUkJOi9997Tzz//rLZt2wbKB1yR9a/BD6p4iSg5nU49+OKLBb4jhq+dSE/XI0OHSpJKx5bSwwP62FoPUBgPPnmv4suXlSQ98corOpqaams9h44eVf9hwyRJFSsnqN9jd9laDwDAXmXKlNH48eO1bt06denSJRCPy/MfNivVlFTKwhrqyTUa48IJk1pK6u6jPjq7WbZEkt8OzO0KIIraTKPwETNJa2RkpJ588klt2bJF9913nyM8PDwQP+SKnAqVyuuBJ+6VJK36/Xc9+vLLttViGIb6DB6cPRLjySEPKTautG31AIUVUzJag4b2lyRt++sv9RowIPvOLgXxQM+e2SOIJr/yile1nMnM1O1PPaW/9rl+fT83/AkVLxHl1b4AAIHLzHF5eHi4HnzwQW3dulX9+/d3REZGBupx+QxJO/NpEy7Jqtul3SXXyP+qbtalS/LV8EZ3l1+YmyXeR+wKIIraTKPwkfw+6Lp27arff/9dr732miMuLi5QP+CKrMefe0Dtu7SRJE3+8ku9OW2aLXUMe/fd7Dty9Pi/bur9SC9b6gB8qec9N+j2PjdJkn5csUJPjRxpSx1PjBiRfelFn0fvUI//62ZLHQAAa+V3XN6+fXutWbNG77zzjqNcuXKBflyeJWmgiXb/8nG/5STNkjRZ7udJzJR0j6T9PujLIamjm+VFIoAoajONBrt/SXpb9r1e8lW3bl3NnTtX3377rSMpKSnQP+CKrPDwML05ZaRq1ashSRr46quaNGuWX2t47aOP9PI770hy3cJw1Nsv+rV/wEovv/6cWrZtJkl657PPNHjcuOzb2Voty+nU06NH672z7+kOV12u5195yi99AwACR2JiombMmKFFixY5GjduHEzH5TMlvZNPmw6SfHHdbllJQyVtk3RzHm3OSLpdroCioHrK9Ud/I8fDKSneTdufc7TJlMV3xIiwcucenJtpNL8TWn/ONPqNXJN9/CbpavkmZQoF/5b0H7l+XgNUsPk7LFeqVCkNGTJEjz/+uKKiooLpA67IKh1bSu/PGqceV9yp1JTjemToUG3asUMjn3pK4WHWZVwZp0/rof/8R9PmzpUklUuI13szxzI0HCElIjJCb3/6qm5sf7d2/fm3Xv3gA23cvl0fjxihUjEFmf+5YI4dP647BgzQ92dvuVnvotp6c/JIhYcHbG4NIEBt/G2LDuw/5LFNs5aNVSq2pJ8qglnR0dF65plnNGDAAEVHRwfrcfm/JDWR1MpDm7fkmjNhqhf7bynpDkm9JXl6EW852261F31Irvq9mV09XFIZL/s0xa4jg6I002h1SV/Jde3OerledMFisFzhgyStUQCFDw6HQ71799bWrVs1cOBAB+FDcKlVN1Ez5r2vKtUrSZLemDpVN/XvryPHjlnS396DB9Wlb9/s8KFWvRqa+f0HqlSlgiX9AXaKL1dG/1s0WS3auG5f+9WiRWp31136bfNmS/pbs2GDLu/VKzt8aN2+hWZ+/wEnBwC8MuHVD3RPj0c8PrZt/tPuMnGB2267TZs2bdILL7zgCOLwQZIy5JrnYYaHNsUlTZE0V65LGvI6bywuqYWkB+QaWbFdrrtNPCbP4cP7kprK+/BBkp6X1EauOR/OPdydf4+7oE1bSZcXot982fmniaIw02iEpB8kXSOphKSGksb4YL9WKy3pA0k5ZwlcaE8pubVu3VqrVq3Shx9+6KhYsWIwf8AVaQ0uqac5yz7JPkn6dskSJV1zjUZMnKi0kyd90kdqWppefOstNereXSt/+02S1LFrW81ePFW16ib6pA8gEMWXK6NPv5moW+9y/SrbsH27Wt52m/o+/7z+3uebuZ137tmjuwcNUptevbTtr78kSb363qypc95WXBl3l7ECAELNpZdeqiVLlmj69OmO6tWrh8px+UlJ/yfXSbynu0NcK9f8CcfkCgu+k2tU/VJJGyQdl2vqgXfkCiFqediXIel/cgUP/SSlFeoZuP74vVyuc9Efztbprv+Pc7T5Qa7JLq35i+BZdgYQRWGm0RvlutdqTmd8sF8r3SjXG6b3BcsX+r+U3CZNmqRly5apRYsWofIBV6SdO0nq1dd16du5wCDp2mv1xtSpOpSc7NV+/963T2M+/FANcgQaDodDDz3VWx/8dzx/mUWREFksUq9OfElDRj2tEtHF5XQ6NXXOHDXs3l1PvPKKflq3rsDzQ2Q5nVq6Zo36Dxumi3v00GfffCPDMBRTMlpDxz6rEW8OUUSkXVd3AggFZu6sYBh+KAT5GjNmjFavXq0rrrgiVI/Lh8l1LveOPAcR0ZKaSbpKUle5RhA0kLnpDo5JmibXZR83SVpbiHo9aaTc8z+k/D97dx0WVfYGcPxLg9gIFrq65er+RLFr7e521bU710Jda8EWu1d37Y61a00s7O7GAilBkYbh98fICFIDTBDv53l44N4599x3cC87973nvAe4paXzJUifnxKiK40mNrwFlPNw9mrwvHlQ/keUULEPTVYabRjPPq0W9UihXEBboCvKYTdfiySNxN2sWbOM+gcu0zIxNWHGkom079aSmeMXcPHsNbx8fRk1ezaj586lkp0dzWvXpkb58tjmzYt17tyxPpwoFAq83r/n9bt3nLx4kT0nTnD9/v1Y56hZvypjpgylhMEWWWgAACAASURBVF0xXb89IfSu95DfaN6uIfOmLGP7uj2EhoWxbMsWlm3ZgnXu3DStUYN6VarwTcGCFLC2xsbKCmMjIyIiI/H08cHd2xu3t285ev48h06fxifGVCljYyM69WrD7+P6kccmvrpWQgghMqqmTZtmhs/lr4EBwAzgN5QPx6ugHN2eEsHAPeAYytESrijvtbStRjz7zqKHFSf1/ZgiutJo/0Ta1AR6oZwLkxq5geEo59wkNDY0HOhEyiqNxie+dVaPaajv1MiN8nduBxQDSgCmibS/gTJDJoTW2Jcvybajqzh15ByzHZdw79ZDFAoFrjdv4nrzpqqdibEx+aytscqRA28/Pzx9fIiIjP/vtn0FO8ZMHkLlGuV19TaESJNs8uVh5tJJ9BnahTlOyzh+6DRhoWF4v3/Pmt27WbN7t6qtoaEhObJmxT8ggKgEHjOamZvRoFktRkwaSNHvC+vqbQghhBD68gqY/vnLDGWRx5IoH25Hf1mhnErx8fPXh8/f/VGudnEfeIEebvqJPwFxWudRoP8EBKhfaTQC5RyV5NJVpdGvfY+yAGVMQSgLj+jbYL4Ul4z2GmVCqB/wdal0Fx3EJASgrNFQq2E1nj58wZF9J/hv70luX/8yoiE8IoLXHh7xzmM3MDDAvkJJGraoQ4PmtSnyXSFdhi5EmvddsaIs3zybwIBAXI65cnT/KU4ePsvHDwGqNgqFAr+PH+Mcmyt3Duo0rk79ZrX4pU5lslim9OGPECIpCSX/MgU1nqln6t+PSAtCUd686+UGPoWqx7Mv0yYgoiuNrkW5Xml8zGK8PgfldID4aimYo8xElQHsgXokXuwj2irgd1Jf7COmOvHsO0vi84d05TjK31Eg8BBlURJXlL+rEfG0d9FZZEJ89v1PRRn8U28Gj+7NO3cvnj58gaeHF54e3nh6eOP//gO58+Qib35rbPLlIW9+a4r9/L0MAxdCDZbZLGnSuh5NWtcjIiKSNy/dY11fH95/IFeeXKprK29+a2y/KSjLagohhBDpT3HiLskZgHKVQ51LCwkI+FJp9DYwiYSnAzT+/BWE8sbZB+UQlmwopxX8gPrvKQrlcptT0E6xj/imX5zUwnlSwhVoGc/+mvHsSzP1H0Tmla+ADfkKpGQpYyFEUoyNjSjyXSEZMSSEEEJkTDXj2Xce3dSeiCOtJCCiTQPWA+OAniSciMiC8gl+SvgDBwFnlAkPbTBAuSbs19JKAiIhNePZJ/UfhBBCCCGETqi3CoZMwRAiGdJM/QfQ7zKcCYmuNPoDMB7leqTBqegvGGVdhxko577kQVnBVFPJh/aAJ8oRFdFfCuIucwJwJUabCNLeyIKa8exz0XEMQgghhBBCCCE0I83Uf4C0NwIipvRSabQScefUqMMI5fKXacV3gG08+110HIcQQgghhBBCiNT7Ecj/1b4gNLfwQrKl5QRETGm50ugElKtHZImxbwbw9bp/C4H9MbZDUK4Bm1bUjGef1H8QaZJCocDQMC0O4BJCCCFEasgUDCE0Kr7pF67Ev6CDJcp7WE/ggbYCkk/wqRcEXEA5VeQEyjoP8a28sS5GmxMoC3/46yhGddSMZ5/UfxBp0pgBTni989F3GEJkSP8s3ijXlxBCCJExJKf+wwrgFHCL2A/XNUoSEJr3P+LWf/iA8h8yLasZzz4XHccgRJIun7/O9vV7mTlhob5DESLD8XjryRzHJXJ9CSH0RkZACKFR6iYgfgI6fv75PMqH7FohCQjNi+8f+SzarUORWgnVfzil60CESExUVBROo2YDsGvzAW5evavniITIWGaMW0BwUAi7Nh/gxpU7+g5HCCGEEClXgLj3eCHA5XjaOvElNzBBm0FJAkLz0tQyJ2qqGc8+qf8g0pwdG/Zx96ZySlpUVBSOI2bJUxAhNOTqhZvs3X4YkOtLCE2LiIjk08dAvD198PNNegau29NX3Lh8mwd3HuP27DWeHt4EfPhERHiEDqIVQmQQZvHsu42yvmJMjVGu7AjKaRjntRlUeilCmZ6kqWVO1FQrnn3XUa4oIkSaEBgQiPOkxbH23bhyh91bDtK6U1M9RSVExhAVFYXjSOdY+25evcuuzQdo07mZnqISIv3w9fHjzUt3Xru9VX1Fb799/Y7QkK8/7yduw8rtbFi5Pd7XjE2MyV8wL4WKFFR+fVPgy89FCmKd10qtaQxplUzBEEJjXqAsKJk3xr53X7UpBqz//PMlYLi2g5IEhGYVJ+6SnAEob+bV8SfKIS/q/ruEApuAXmq2T0jNePa5pLJPITRq0cy/8faMWxhv5oSFNGheG8usWquVI0SGt2P9Xu7cuB9n/6yJi2jYoo5cX0J8FhoSyp0bD7hx+TbXLt7m+RM3Xru9JSgwWGcxRIRHqJIc8TEzN8P2mwIU+a4Q9uVLYl/BjtLl/kfW7JY6i1EIkWasBxxibMe8V+2IcqVGK+AA0AHQ+h8zSUBoVs149p1HOZ1BHb+RvH8TM+IWvEyu74GC8ex3SWW/QmiM27PXrFqyKd7XPD28WTZ7NQ5Og3UclRAZQ2BAILO+Gl0UTa4vkdm9eenO9cu3uX7pNtcv3uLe7UdJToMwMzWlcP78FLW1pWjBguSztiaLuTlZLCywjPH19ba5mRlh4eEEBgURGBxMYHAwQZ+/f4qxHRwSgtf797i9fcuLN29we/uWoJAQ1flDQ0J59ugFzx694MShMwAYGhryY4nvsK9QkjIVS1Gmgh3fFSuSrkdKCCHU8gfwA9Dy83Yl4CpgDRT+vG8FMAj171lTRRIQmpWa+g82KJMByeWSgmNiqhnPPqn/INKUqWPnEh4W33LFSisXrufXHq0oVCS+XJoQIjGLZv6Nj5dvgq/L9SUyk8hIBa4ul9m34winjpyLd+QdKG/oS3z3HaWKFaOorS1FChZUJRzyW1tjaKjbMmtevr68iJGQePHmDfeePuXmw4eER0SgUCh4ePcJD+8+YcvqXQBkz5GNarUr0aJDQ2o1qIaZeXzTxXVPnZyIzMAQQm2RQCugITAY5Yj9EsBLYCOwmPiLUmqNJCA0KzX1H0ql8JwnU3hctJrx7JP6DyLNOHviIscOuCTaJiw0jKlj57Fi61zdBCVEBpHY6KJocn2JjE6hUHDF9Qb7d/zHoV3H8PXxi9MmZ7ZsVLCzo1KpUlQuVYpyJUuS3TLtTGmwsbLCxsqKinZ2sfaHhIZy7f59Lt68ycXbt7lw8ybe798D8PFDAId2H+PQ7mNYZrOkftOaNGvbgOp1K2NiaqKPtyGE0J4jn7/0ThIQmvMjkP+rfUEoh7io4zwwhNhFQhITBTxDWck0NWrGs88llX0KoREREZE4OTgn3RA4svcEri6XqVKzgpajEiLjSGp0UbQje09w4fQVKtcor4OohNCNG1fusH/7EQ78exRPD+9Yr+XKnp0mNWpQrWxZKpUqxU9Fi6bL6QrmZmZUtbenqr29at+LN2+4cOsW569fZ9+pU3j5+hIYEMjuLQfZveUgOXJmp0GL2jRv15CqtSrofDSHECJjkwSE5sQ3/cIViO+TnSVQHmVV0gef9wUBS7QTWoKk/oNI0zau3M6TB8/Vbu/kMJtDF7dhZCQfloRIyrmTl5IcXRSTk8NsDl7YKteXSPfOnbzEgml/ccX1Rqz92SwtaVazJu0aNqRu5cqYmmTMUQBFbW0pamtLpyZNWDR+PGevXmXHf/+x5/hxfPz9+eD/ke3r9rB93R5+KP4tQ//oS9M29XWWiFAr0SNzMIRIt+RThOYkp/7DCuAUcAvQZ2nxmvHsk/oPIk3we/+BeVOWJ+uYh3efsHnVTi1FJETGkZzRRdEe3HnMltX/aikiIbTv3MlLtK3Tg85N+qmSDxZmZrSpX5+tc+fy5tQp1kyfTuPq1TNs8uFrRoaG1KxQgaUTJ/Ly5EkOLF9O95YtyZU9OwBPHjxnSNex1C/Xln07jqBQKPQcsRAivZMEhOaom4D4CeWSJ6CcdhGktYiSVjOefVL/QaQJ8yYv5YN/8v9TnOuUsuOEyEw2/b2Dx/efJfu4uU5L+fghQAsRCaE98SUerHPnZuaIEbxxcWHz7Nm0qlsXc7O0UYRRE9zevuXRixc8eflS7WOMjYyoV6UKK5yceHXyJH9Pnsy3hQoBuk1EqDMCIkpGQAiRbkkCQjMKALZf7Qsh/oqiTnz5vU/QZlBqqBnPPhcdxyBEHA/vPmHTPykbyeD3/gPzp/6l4YiEyDj8/ZI/uijae19/ub5EuhHw4RP9fh0ZO/GQKxczhg/n0aFDDO/WjaxZ9DkQVXuaDhiAXcuWlG/XLkXHm5qY0LVFC+7s3ctKJyeK2io/5kYnItrX6xWnboYQQqhDEhCaEV/K/DYQ+tW+xkD7zz+vQDkCQl9+ROo/iDTKyWE2kZEpf7qyYcW2ZNWOECIzmTdlOf5+H1J8/Pq/tvLs0QsNRiSE5t2//YimVTtyZO8JAPLkzMm033/n0eHDjOjeHUsLizjHHHN1ZfuRI+z47z9dh5tmGRsZ0a1lS+7u28cKJyeKFFR+dLzieoNGFdpz7uQlPUcohEhvJAGhGS9QFpSM6d1X28WA9Z9/vgQM13ZQn5kBpVFOEakNNAU6AQmtp1YQqPO5fQ2gKmCj/TCFUIpezSI1IiIimTx6toYiEiLjeHz/GRtXbk9VH8rra46GIhJC87at3U3LGl1xe/YagO4tW/Lo8GFG9ewZb+Ih2h/z59NlzBi6jBmjq1DTDWMjI7p/TkRMHDAAQ0NDfH386NJsAPOn/qXZKRkyBUOIDE0SEJqz/qvtmDftHYGzgBVwAGUiIFhHca0CbqAc2XAC2A9sQpmIiM9K4Pjn9i4oC1Je13KMQgAQFhrG1LHzNNLXmeMXklXhX4jMwMnBOVWji6K5HD3PycNnNRCREJoTER7BqL6TGD3AidCQUCzMzPh78mRWODll2KkWumZibMyE/v05uHw51rlzo1AoWDDtL7o0GyD1l4QQapEEhOb8AeyJsV0JuAq8BDYD1iinXbREt4UngwAFyuVAg4APgC/KERqvgeeAG/AW8ALeAwEoEyQRn487qcN4RSa2cuF6Xru91Vh/U8fOJTwsvpVwhch8ju530ehw6Slj5hARHqGx/oRIrclj5rBjwz4AfixShHObNtG1RQs9R5Ux1a5UiSvbt1PV3h5QFvoc3GWMjEwQQiRJEhCaEwm0AhoBB1He2JdAedO/EagI9P/cTpf6AkaAKWAJ5ATyAPmBwsB3QFGURTTzohylkR3l8qAmn4/rquOYRSbk6eHNstmrNdqn27PXrFqySaN9CpEehYeFM3VsQjPvUub5k5esWbZZo30KkVJH9p5g3fKtANSqWBHXzZv53w8/6DmqjC2/tTVHV62ie8uWgHLk4dLZq1Ldr6yCIUTGZqzvADKgI5+/hBDJMHPCQgI/aX5w0KKZf9P2t2bksbHSeN9CpBerlmzi5fPXGu934YyVtO7UFCvr3BrvWwh1vXZ7y6h+fwJQwMaGjc7OZLO0VPv4BevX4+3nxztv5aoOUVFRjF+4ME67b21t6dWmTax9waGhnLp0iaOurjxxc+Otpyd+Hz9S1NaWYkWKYFesGD3btMEiiSU+9508yaU7dwAY0KEDtvny8dbTkxXbt3PM1RV3Ly8K5s1LyR9+oHnt2jSpEd/q74m7eu8eK7dv58qdO7z/8IEfixSh5I8/0qtNG37+/vtk9wfK2hCLJ0zg7pMnXL13j3mTl1GhahkqVC2Tov6EEBmfJCCEEHp348oddm85qJW+AwMCmTVxEbNXOGmlfyHSOm9PHxbN/FsrfQd8+MRsxyXMXDpJK/0LkZSI8AgG/TaagA+fMDYyYqOzM3ly5kxWH//s3MmTly9j7ZuzOu6IvBrly8dKQPx37hwdRowgOPTrRc/gnY8PF27eBGDhhg0sHDeORr/8kmAMx1xdWbljBwDNa9Xiwq1bDHByIiAwMFaf1+7dY+2ePfTv0IHZDg6Ympgk+f4UCgXjFy5k/rp1sUYOvPPx4czVq6z+91/m//EHPVq1SrKv+JiamLB5zhwqtG+Pf0AAQ7qO5ciVHeTKnSNF/ak3AiJFXQsh0gBJQAgh9CoqKgqnkc5aHU65Y8M+uvTrgF2ZElo7hxBplfOkxQQGBCbdMIW2rd1D134dKGFXTGvnECIhOzfu49a1ewBMHjJEVZMgORpVr05pLy+OubriHxAAQLsGDeK0K/HVKIH3Hz4QHBqKkaEhFezs+NbWlsIFCmBqYsLz1685c/UqL93deenuTsvBg3FZt47KpUsnGc/R8+eZvnIlCoUC++LFKf3TT5iZmXH93j0ufx4l8de2bXxToAAjundPsr9Jixczb+1azM3MqFCyJCV//JGAwEDOXb/O89evCQ4Npb+jI3Y//kjZn39W4zcW1zcFCvDPlCm0HTaMd+5eLHVexYSZI1LUlxAiY5MEhBBCr3ZtPsCNK3e0eo6oqCgcR85i16l1Wj2PEGnN7ev3VUX5tEWhUOA40pntx1I/91uI5Pp30wFAWXRSnZvx+MweNQqAcu3a4R8QgIGBARudnZM8zjp3bib070+PVq2wzZcvzuvhEREs3byZMXOV9VdGz5nDmQ0bknzCP23FCvLlycNKJyfqV60a67WN+/fTe+JEoqKimLtmDX3bt090hY/g0FBmr15NpVKlWDV1Kt8XLhwrvhEzZ6pGXkxevpy9S5Yk+b4T0qxWLZrWrMkBFxf2bjvEH9OGYWQk5eaEELHJXwUhhN4Efgpi5oS482y14drFW+zddlgn5xIirXAcOUsnxdounbvGwV3HtH4eIWLy9vThiusNADo3barW0H1Nqlu5MhMHDIg3+QDKJSuHde1K/w4dALh85w7HL1xQq+9t8+bFST4A/NasGY2rVwfAx9+fY66uSfZlY2XFgeXLYyUfouOb7eCAda5cABw5exa/j6lbSvO3Zs0A8Hrnw80UPlxQ559RilAKkX5JAkIIoTdLnVfh9c5HZ+ebMX4BwUEhOjufEPq0d/thrl28pbPzTftjHiHBcefCC6Etbs9eq25Eq6Rg6oWudGzSRPXzvadPk2zfsk4dKtrZJfh6h0aNVD+/8vBIsr/xffsmWJTT3MyM5rVrq7Zfursn2V9iqsSYYvL8yctEWgohMitJQAgh9OLVizf8vWiDTs/p8daTZXM0u9SnEGlRcFAIM8Yt0Ok5377yYOUCmeYkdMfjrafq50IJjELQNV9/f249esSZq1dVX77+/qrXn716lWQfv5Qtm+jrRQoWVP2sTsKgWhL9fVOggOrnV6lMQNhYWakKY755mbq+hBAZk9SAEELoxdSx8wgLDdP5eVcuWMev3VtRsHB+nZ9bCF1ZPndNrJszXVk2ZzXturYgf8G8Oj+3yHzMzL8sbRkapvv/n4CyBsrekydZtGEDNx48iHdFjJievXmTZJ8/FimS6Ot5rb4sK+39/n2ibQ0NDeNMvYjTX548X/rz80syvsQooqKIiIwEwCKLeYr6UG8VDJmCIUR6JSMghBA65+pymf/2ndTLuUOCQ5n2xzy9nFsIXXB//Y4V89fq5dzBQSHMGK/bkRci8ypY6Muohzeeuk+4+QcEUK5dO34dORLXmzdjJR9MjI3JkTWr6itacHBwkv1mj9E+PoaGXz6+J3UjbmZigrmZWaJtYt7up/bG3t3TE4VCAUDhogWTaC2EyIwkASGE0KnISAVODrP1GsPBXce4dO6aXmMQQlumj5uv11oMe7cd5vql23o7v8g8vvuxKFksLQDYe+KETs+tUCjo9scfqpoOlUqV4i9HR54cOcL7ixf5dO0aXufP43X+PE+PHtVpbPq09+SXhwsl7H7SYyRCiLRKEhBCCJ3a9M9OHt59ou8wcBzprHpKI0RGcfn8dfbv/E/fYehs9Q2RuVlkMadBc2UBxW2HD+MfEKCzc1++c4cjZ88CUNXenqP//EOPVq0onD8/lhYWsdq+VqNQZEYQERnJPzt3AmBXpgRFviuUon5kCoYQGZskIIQQOvPB/yPzJi/VdxgA3L/9iK1rdus7DCE0RqFQ4DjSWd9hAHDr2j12btyv7zBEJtCxZ2sAPnz6RK8JE1J1Y5qcZTxvPXqk+rlX27aYmZom2FadwpMZwcRFi3jw/DkAnXq11XM0Qoi0ShIQQgidmTdlOX7vP+g7DJU5jksI+PBJ32EIoRHb1+3h3q2H+g5DZdbERQQGBOo7DJHBVaxWll6DOwNwwMWF+etSvhJLzmzZAOXT9U9BQYm2ffLyyxKT39raJtp21/HjKY4pvYj5u6/ZoBq/9miV4r5kBIQQGZskIIQQOvHkwXM2rtyu7zBi8fXxY8G0v/QdhhCp9uljIM5/LtF3GLF4e/qwxHmVvsMQmcAf04ZhV6YEoHwKf/7GjRT1Uzj/l9WRXiUxbaJwjGU/Y46G+NqNBw/YeuhQiuJJL9zevlWNPsmb35r5q6YmazSJECJzkQSEEEInnByciYiI1HcYcaz9ayvPH7vpOwwhUmXhjJX4eie+HJ8+/LN4I69eJL3soBCpYWJqwpINs8ia3ZKIyEg6DB+Oy+XLye4n5vKXc1avTnQURKmfvhRYnLZiBS/d3eO0OX3lCi0GD87QT+vvP3tG0wED8A8IwMjIkEXrZpLbKqe+wxJCpGGSgBBCaN2xAy6cPXFR32HEKyI8gslj5ug7DCFS7MXTV6xZtlnfYcQrLDSMqWPm6jsMkQl8820hZi37EwMDA7z9/GjUrx8zVq5M1s1/n3btVNMwNh04QN5q1fi2fn1KtmhByRYt6DVhgqptjfLlqVu5MgBevr6UatmSfn/+yby1axm3YAGN+vWjYd++ePr44NCzp2bfbBqx6cABqnbqpJqOMnzCACr9UjbV/ao1eiIDJ3WEyOgkASGE0KrwsHCmpPEbkFNHznH6mKu+wxAiRaaMmUN4WLi+w0jQf/tPce7kJX2HITKBpm3qs3b3YnLlzqEsyrp0Kc0HDcLX31+t43PnyMH6mTMpVrQooFzV4a2nJ4/d3Hjs5sbrd+9itV/p5IR98eIABIeGsnbPHv6YP5+5a9Zw8uJFoqKiGNmjB2P79NHsG9WzkNBQBk6eTM/x4wkKCcHM3IyZSycxZGzGep9CCO0w1ncAQoiM7Z/FG3n5/LW+w0jSlDFzqFprB8bGRvoORQi1uRw9z4lDZ/QdRpKcHJw5fGm7XF9C62o2qMahi9sY0GkUN6/e5ej581To0IEFY8fSrFatJI9vUK0adatU4erdu7zy8ODNu3eqqRhFChaM1bZg3ry4bt7Mql27OHr+PA+fPycgMJD81tZUsLOjc9OmVChZkvCICCb07w9AoRh1JmJqXKMGNlZWANjmzZtojDmyZVP19/P338fbZlDHjvj4+2NinPRH/dLFi6v6K1OiRKJtXW/eZNj06aq6F0W+K8TyzXMoYVcsyfMIIQSAVIgRQoPe+byNmvb3qDj7S5UsTb06DfQQkf6dP3WJT58SryaelDmOS3h8/1mibabM/4O8BW1SdZ5Kv5QlR87sqepDCF06tPsYbs9Sl+Dbt+0ID+4+TrRNl77tKVAoX6JtktK8XUNsvymQqj6EUFd4WDhTxs5l3fKtqn1lSpRg0sCBNPrlFz1Glj5dvnOHycuWccz1y2jBRi3rMmeFE1mzW2r0XBOHTWf9isSLVq/dvYRaDatp9Lz69v69L6vX/xNnf9XSdfi1UW+5ZxMZhoyAEEJoVdVaFVPdx+rFG5NsU612Rb79sUiqzyVEetK4Vb1U93H/1qMkExBtOjfFvoJdqs8lhK6YmJowed5YKlYry2SH2bxz9+L6/fu0HDyYCiVLMmngQOpVqaLvMNO86/fvM3nZMg6fPavaly1HVkZNGkT3gR31GJkQIr2SGhBCCCGEECJDatK6HmfvH8Bp7hhs8uUBlE/zmw4YQM1u3dh9/DghoaF6jjJtiVQoOHHhAm2HDaNyx46q5EPW7JYM/aMvro8OS/JBCJFiMgJCCCGEEEJkWKZmpnQf2JGOPVuz8Z+dLJ+zBm9PHy7cvMmFmzfJmiULTWvWpG39+tSvWhUzU1N9h6xzCoWCs9eusePIEfacOIG3n5/qNctslvQc2JE+w7rqZpqiGqtgZOSlTYXI6CQBIYQQQgghMjwzczN6De5M515t2bByG38v3ICnhzefgoLYeugQWw8dIrulJc1q1aJdw4bUqVQJUxMTfYetNQqFgvM3brDz6FF2HTuGl69vrNez58jGb33a0Xd4N3LlzqGnKIUQGY0kIIQQQgghRKZhbmFGn9+70mvIb1w+f4P9O45wePdxfH38+BgYyKYDB9h04ABZs2ShfMmSVCpVisqlSlHBzo5c2dNvoeLA4GCu3bvHhZs3uXjrFpdu346zRKll1izUa1qTZm0bUKNeFUxMdZ+AMZAREEJkaJKAEEIIIYQQmY6hoSGVfilLpV/K4jRvLK4ul9m/8z/+23uSD/4f+RQUxKlLlzh16RKgvDEuVrQolezsqFS6NJVKleKnokXVumHWB7e3b7l46xYXbt3i0q1b3Hn8mIjIyDjtzC3MqN2wOs3bN6BWg18wtzDTQ7RCiMxCEhBCCCGEECJTMzY2onrdylSvW5npi8Zz5vgFzp26xPWLt7h76yER4RFERUXx8PlzHj5/zto9ewAwMzXlmwIFKFKwIN/a2lKkYEGKxvieI2tWrcUcGByM29u3uL19y4s3b3jx+Xv0vsDg4HiPMzQ05McS31Gmoh2Va5SnTqPqWGbNorU4hRAiJklACCGEEEII8ZmJqQl1GlenTuPqAISGhHL7+n2uXbzF9Yu3uHrxFr7e75WvhYXx2M2Nx25u8faVK3t2bPPlI2uWLFiYm2NpYUEWc3PlV/TPFhZYWlhgZmpKWFgYQSEhBIWEEBgcTHCMn4Oiv0JCeOvlhff792q9n2w5slKmgh1lKtpRtlJp7MuXJGt2S438rrRBXkjyDwAAIABJREFUpmAIkbFJAkIIIYQQQogEmJmbUb6KPeWr2Kv2vXrxhptX7/Ly2Wteub3l1Ys3vHrxhndvvVAoFKp2fh8/4vfxo9ZjNDAwwCZfHgoVKUjhorafvwpS0r4EPxT/Ns1OExFCZD6SgBBCCCGEECIZom/yvxYRHsGbVx68/pyUeO32Fq93PgQFBhMcHEJIUDCv3N7i/vpdov1nsbQgl1VOLLKYY2FhgUUWc7JYWmBuYY5FFnOs8uRSxVCoSEEKFSmAmbnUbhBCpH2SgBBCCCGEEEIDjE2MKfJdIYp8VyjBNquWbGKyw+xE+xkxcQB9fu+q6fDSBZmCIUTGZqjvAIQQQgghhBBCCJHxSQJCCJExyPxWIVJEniQKIdIS9UZA6CAQIYRWSAJCCCGEEEIIIYQQWicJCCGEEEIIIdIQGZkkhMioJAEhhBBCCCGESBPUmVAZhSRohEivJAEhhBBCCCGEEEIIrZMEhBBCCCGEEEIIIbROEhBCCCGEEEKINEGdVTBkGQwh0i9JQAghhBBCCCGEEELrJAEhhBBCCCGEEEIIrZMEhBBCCCGEECJNUGcKhixTKkT6JQkIIYQQQgghhBBCaJ0kIIQQQgghhBBpg4yAECJDkwSEEEIIIYQQQgghtE4SEEIIIYQQQgghhNA6SUAIIYQQmViUQoYyC5HWRIRH6DsEvZEilEJkbMb6DkAIIYQQuhMVFcWdGw84uv8Uxw+e5sGdx0keM6zneJq1a0j9ZrUoaV9crRsEIURsL56+4tiBU2xYuSPJtrMmLWbLmt3Ua1KD+s1qUa6KPcbGRjqIUgghtEsSEEIIIUQm4Pf+A8vnrGbvtsO8c/dK1rFuz16zeObfLJ75N/kK2NCiQyMGjOpJrtw5tBStEBlDaEgo6/7ayrZ1e3j68EWyjn314g2rlmxi1ZJN5MyVgwYtajNkTG8KFSmopWiFEEL7JAEhhBBCJCI8LJxb1+5RrnJpfYeSIqEhoaxeupmls1cR8OGTar+xkRHVypalQdWqFC5QgPzW1hSwtsYqVy58/fxw9/bGw9ubV+7u/Hf+POeuXSMiMpJ37l6smL+Ozav/ZZBDL3oO6oSZuZke36HILB7ceUx+27zkzJX2E18KhYJ/Nx1g3uRluL95p9pvYGBAmRIlaFy9Ot8XLkwBGxvyW1tjY2VFwKdPquvuzbt3nLp8mRMXLhAUEoK/3we2rd3Nrs0H6NK3PUPG9iG3VU49vkPtUWeAlczAECL9kgSEEEIIkYhPn4JoW6cHnXu3ZeyU38mWI6u+Q1Lb8YOnmfD7dDzeeqr2NahWjQ6NGtG4enVyZc8e73HZLS0pamur2h7RvTt+Hz9y6MwZth0+zH/nzhHw4RMzJyxk3fKtTF04jrpNamj9/YjM7dzJiyyfs4Y/54ymRYdG+g4nQbeu3WN0f0ce3n2i2lehZEk6N2tG81q1KGBjE+9xObJmxTZfPtX2oE6dCA4N5cSFC+w6doxthw8THhbO6iWb2L5+D6MmDaLHoE5afz9CCKFJUoRSCCGESERwUDBRUVFs/HsHdexbcWTvCX2HpJbFs/6hd7thquRDpVKlOLl2LfuWLqVz06YJJh8Skit7djo3bcq+pUs5uXYtlUqVAsDjrSe92w1j8ax/NP4ehIgpOCgEXx8/hnb/g24tBvHmpbu+Q4pj344jtKvbU5V8+L5wYbbOncvZjRvp36FDgsmHhFiYmdG0Zk1WT5vGjV27aF67NgCfPgbiOMqZEb0nEhYapvH3kdZJEUoh0i9JQAghhBCJCAkKUf3s6eFNv19H0qf9sFijCtKSkOBQhnQdyxzHJURFRZEvTx62zZvH6fXrqWpvr5FzVLW35/T69WybN498efIQFRXFHMclDOk6lpDgUI2cQ4ivBce4Fl2Onqdumdb8vXA9kZEKPUalFBUVxdzJyxjSdSyhIaFYmJkxf+xYbu7eTau6dTVyjh+LFGHH/PmcXLuWEt99B8C/m/bTsVFffL3fa+QcaYEUuRUiY5MEhBBCCJGIoKDgOPuO7nehjn1r1i3fikKh/5ufaKEhoXRq3Jd9O44AUPbnn7mwZQst69TRyvla1qnDhS1bKPvzz4Dy6W+nxn0JDZEkhNC8r6/F4KAQpo6dR/Nqnbl784GeolIa0Xsii2asBKBg3rycWreOgR07YmKs+dnOVe3tObtxI01r1gTg6oWbNKvWOdnFZYUQQh8kASGEEEIkIuZT15gCAwKZNGImrWt2izXXW59GD3Di2sVbALRv2JATa9Yke8h3chWwseHEmjW0b9gQgGsXbzF6gJNWzykyp4Suxbs3H9C8WmemjplLUGDchKG2LZqxkl2bDwBQ0c6OC5s3Y1+8uFbPmTVLFnYuWMDoXr0AePvKgz7thmWIEUjqjICQKRhCpF+SgBBCCCESkdBNT7QbV+7QpEpHnCct1uuT/+Vz17Bn6yEA2tavz/qZM7Ew083qFBZmZqyfOZO29esDsGfrIZbNWa2Tc4vMIySRazEyUsHfizZQr2wbXP47p7OY/tt3knlTlgNQqlgxDq9cSd48eXRybgMDA6YMHcq4vn0BuH39Pg79/tTJuYUQIqUkASGEEEIkIjieKRhfiwiPYOnsVdQv15bzpy7pIKrYTh05h/OkxQCU/ukn/p4yRefzqA0MDPh7yhRK//QTALP/XMKpI7q7ERQZX3zTob725qU73VoOZmi3P7ReF+HpwxcM6zmeqKgorHPl4t+FC7G0sNDqOeMzaeBA1TSrfTuOsGL+Op3HIIQQ6pIEhBAiQ5CiVUJbkhoBEZPbs9d0atyPkX0m4vf+gxaj+iI8LJwJw6ajUCiwzp2bnQsWkMXcXCfn/loWc3N2LliAde7cKBQKJgybTnhYuF5iERmPOsnAaHu3H6Z2qVZsX7dHa/FMHj2boMBgTIyN2TpvHoXy59fauRJjYGDA6mnTsCtWDID5U5fj6eGtl1g0QaZgCJGxSQJCCCGESERK5pTv3Lif2nYt2L3loBYiim3Dyu2q5QgXjRunt5ugaIXy52fRuHGA8mn0hpXb9RqPyDiSey36+33Aob8jHRr05vmTlxqN5fypS5w+5grAyB49qFamjEb7Ty5LCwtWOjlhYGBAcFAI86cu12s8QgiREElACCGEEIkIDlZ/BERM7339GdZzPL817c+rF280HJVSYEAgS2b9A0CFkiVpXa9egm0jFQpaDB5Modq1KVS7Nt83bMhjNze1ztNn0iTVcd/UqcOFmzcTbd+6Xj0qlCwJwJJZ/xAYEKjeGxIiESm9Fi+euUqD8u1YPPNvIsIjUh1HVFQUM8YvBCBPzpyM7NEj0fYjnZ1V10/hOnX475x6U5PmrF6tOq5Q7dqs3ZP4aA774sX5tXFjALav28PThy/UOo8QQuiSJCCEEEKIRCRn2Hd8zp64SL2ybfhr3loiIiI1FJXSmuVb8PXxA2D68OGJtjUyNGT+mDGEhITg5evLaw8POjk4EBKaeOHMVf/+y/q9e/Hy9cXL15dOTZtSuXTpJGOLjsfXx481y7eo+Y6ESFhiRSiTEhYaxhynpTSq1IHrl26nKo7/9p3kzo37AIzr14/slpaJtnccNIhslpZ4+fri6eNDz/HjcfdKfMnM8zduMGnxYtV1V6ZECbq1aJFkbJOHDMHM1JTISAXzpixT/02lITIFQ4iMTRIQQgghRCKCA1N+0xMtJDiUGeMX0LRqR25du6eBqJT2bjsMQK2KFfmlbNkk239bqBDLHR1V23ceP2aks3OC7e89fcrIWbNU2xXt7JgydKhasf1Stiy1KlaMFacQqaGJJTYf339G61rdmDhsOp8+pmxkzr7tRwDIb21Nn3btkmyfzdKSzbNnY2ZqCoCPvz9dxowhUqGIt73vV68XsLFh1dSpat2YF86fnx6tWwNw/NAZvSxLKoQQiZEEhBBCCJGI1I6AiOnB7ce0rN4Fx1HOBH4KSlVfbs9e8/j+MwDaNWig9nFt69enb4ybpn927mT7kSNx2gUGB9PJwYHgzyMkcmXPzkZnZ4yNjNQ+V3Rcj+8/w+3Za7WPEyI+ySkIm5ioqCjWr9hOHftW/LfvZLKODQ8Lx+Vz7YfmtWphamKi1nGlf/oJ55EjVdvnrl/HaenSeGPrNWECbz09AeXIpfUzZ5InZ061Y4xeDjc0JJSzJy6ofVxaoVZRaRkAIUS6JQkIIYQQIhEpnXeeEIVCwZqlm6lr35rjB0+nuJ/oGycDAwOa1qiRrGNnOzioKuYDDJw8maevXsVqM2zGDB4+f67aXuHkROFkFrhsWqOG6mYiuTd6QnxN09fiO3cv+nYYQd/2w3nnnviUiGiup6+oapo0q1UrWefr/+uvseq0OK9axfELsRMECzds4PDZs6rtCQMGqDW6KaYq9vaqhMXR/aeSdawQQmibJCCEEEKIRGhrCLP7m3f0avs7Azo54PXOJ9nHR99YVLSzI2+ePMk61tzMjM2zZ5M1SxYAAgID6TRqFKFhYQBsOnCA9Xv3qtoP7NiRFrVrJzvGvHnyUNHOLla8QqRERESk1pZ0/W//KerYt2L9iu0oEpgWEe3YARcAsltaUqN8+WSf6y9HR4ra2gLK0Q7dx43jnY/y+r9y9y4TFi5Uta1VsSJje/dO9jmMDA1p/DkpefLw2STfkxBC6JIkIIQQQohEaGrYd0IO7T5G7dIt2fTPzmQVVouucF81hcv//fDNNyydOFG1fevRIxxmz+axmxtDpk5V7bcvXpxZMYaOJ1d0fFKRX6RGagpQquPTx0AmDptOm9rdeXTvaYLt7t9+BMAv5cqpPf0iphxZs7LJ2Vl1rPf793QZMwZff386OzgQHqFcpcPGyop106djaJiyj+p1KlUClKvxqDu6I61QawaGFKEUIt0y1ncAQgghREopFAoiIyKJiIhUfo+MIDIikshIBREREarXohQKDI2MMDQ0wMjICIPP342MDDEwNMTIyBAjQ+Xrhp/3GxoaYmhkSIiGh33HJ+DDJ8YNmcruLQeZuXQS3/9UNNH2oSGh+Pt9AKCgjU2Kz/tr48acvnKF1bt2AbBi+3b2nTpFYLBy1Ec2S8tYN0spER2fv98HQkNCMTM3S3FfIu1SXoMRREREoohUEBH5ZVt5TUaqVoGJvr4Suxa/3h+kwVosibl+6TaNK//KgBHdGTK2T5z/Xj09vAEolMzpSDGV/flnZgwfrioAe+bqVcq2bYuHt7JvQ0ND1k6bluyRTTHFjM/Tw5sCtvlS3JcQQmiSJCCEEEKkCZGRCny93+Pt6YOXhw/enj54vlN+937ni9c7b7w9ffHx8iU0JFTjS1qmBVdcb9CwYnsGjurJ4NG9MDUzjbddzCkbBVKRgACYN3Ysl27f5t5T5VPf6JsggGWTJvFd4cKp6j9mfF7vfChUpGCq+hPaFxwUorwOP19/X1+P0dv+fh+JjIggMjJjDfGPCI9g8ax/OPDvUWYsmUjlGl+mWkRfewWsrVN1jsGdO3P66lX2nVTWRol53Tn07EmdypVT1X/M+Lw8vBNpKYQQuiUJCCGEEHoRHhbOFdcbnD7mypnjF3h8/2mGTCokV3hYOAunr2D/zv+YuXQiFavFLUDnGeOGIn8qb4QsPteDKNu2LRGRX37/vdq0oX3DhqnqG2LH5+nhLQmINMjHy5czxy9w+pgrF05fifXfV2b24ukrfm3Yh/ZdWzB+5giioiAsVFknJbXXHcBKJycu376tqgEBUNXenj8HDUp137GuO/d09u+pxhwMmYIhRPolCQghhBA68+LpK84cc8Xl2Hkunrkqa9Qn4vljNzrU702H7q0YN30YOXJmV732we+j6merZCzPl5DzN27ESj4AWH4uUJlaMeOLGbfQn6+Tfw/uPJYbukRsX7+XE4fPMtChp2pf7hw5Ut3v/WfP8H7/PtY+C3NzDNUpgpAEczMzLMzMCA4N5YO/XHdCiLRDEhBCCCG0KigwmHV/bWXL6l28fP5a3+GkK1FRUWxds4vjB0/jOHc0zdo2ACC3dS5VG6/37/nhm29SfI57T58yctasOPsXbdhArQoVaFy9eor7BmV80WLGLXTvyYPnLJuzmiN7T0jyL5l8vd8zZfQc1ba3n1/q+vP3p8uYMUR+tULF8QsXmLNmDQ49eyZwpHoCg4MJDg0FIHceue6EEGmHrIIhhBBCK8LDwlmzdDPVijdh5oSFknxIBR8vXwZ3GUOP1kNwf/2OvPm+DK9290p5hfugkBA6OTioblRyZssWq+ZD74kTeevpmfLAv4ovZtxCd968dGdkn4nUL9eWXZsPSPJBA2LWbEiuqKioWNeWkaEh9sWLq153XLKECzdvaiw+m3wpL2apDwYyBUOIDE0SEEIIITTuwZ3HNKjQHsdRzvh6v0/6AKGWk4fP0rhSBwIDg1Uf0j1SkYD4ffp0Hj5/rtpe4eTE1jlzMDdTVv5P6CltckTHZ2BgkO5uhDKCNUs3U6tUS3Zu3I8iFf+OIrbUXHeLNm7k0Jkzqu1x/fqxf/lyVd2GiMhIuowdi9/HlE+diJX4K5C6QrVCCKFJkoAQQgihUYd2H6N1rW48e/RC36FkKMbGRvzaozWHLm3jh5+KkttKWVvh1bt3Kepv04EDrN+7V7Xdv0MHWtapg12xYjiPGqXaf/7GDSYvW5biuKPjy22VE2MTmfmpK2GhYYzoPRHHUc6qwolCc168fZui467cvcv4BQtU29XLlWNc375Y58rF+pkzMTRUfjR/7eFBn0mTUhyfW4z48uZPXyOPZASEEBmbJCCEEEJozOJZ/zCw82gZ4q1BBgYGNG/XkOM3djNr2SQK2OYDoLjdjwC4XL6c7D4fu7kxZOpU1fbXSYd+7dvTqm5d1bbzqlWcvHgxRfFHxxcdr9A+f78PtK/Xi3837dd3KBmKVZ5cVKpeDoBz164RFBKSrOP9AwLo7OBAeEQEQJykQ3QyItr+U6dYunlzimI9ev48APkL5k13CQghRMYmjyKEEEJoxPq/tjHHcYnWz2NuYYaFhTlGxsaYmBhjZGwU47sJRkZfto1NjDE2NsLIyAiFQkFkpAJFZCQKRRSRkZEoIhWq/ZGKSKI+74+MVBClUBAWFsHbV+5af08JqdWwGqOdhlDCrlic1xo0q825k5e48/gxrzw8KJw/v1p9hoSG0snBgcBgZZIoa5YsbJ49GzNT01jt/nJ05Pr9+7x0d0ehUNBt3Diu7diBjZWV2vG/8vDgzuPHqniF9oWHhdOz9VBuXLmj9XNly5EVE2Pjz9eZsep6M46+Ho2N41ynQIxrMfr6i30tKhRx9/u//4i/3wetv6f4ZM1uSd/fu9J7yG/cvfWQ9vV6ERwayokLF2hWq5ba/fR3dOSlu/LviYGBAaunTYuznOf4fv04c/UqZ65eBWDsvHlUsbePVSMiKeEREfx37hwAdZvUUPs4IYTQBUlACCGESLVL567hNHp2qvspXNSWwkULYpPPGpt8ebDOlwebfHmwyfv5ez5rsma31EDE6nnz0p2qPzXW2fmiVahahjFThlKucukE29RvXotJI2YSFRXFARcXBnbsqFbfDrNnq5ICAIvGj493FY2c2bKx0dmZ2t27Ex4RgZevL93GjePg8uWqJ7ZJOeDiAihvtuo3V/9GTaTcnyNnce3irVT1YWpmSvH//UDeAtZYf772VN8/X5PWNlaYmJpoKOqkzZ/6Fwum/aWz8wGYmZvRrf+vDHToSa7cymU3y1W2J1fuHPi9/8ABFxe1ExB/bd3K7uPHVdvDu3WjftWqcdoZGhqyfuZMyrVti4+/P2Hh4XQePZpLW7eSzVK9v31nrlzhY2AgAPWa1lTrmLREvSkYOghECKEVkoAQQgiRKt6ePgzo5EBEeESyj7XMZknVmuWpXrcKNepVoXBRWy1EmHLBQckbYp1aP5f6idFOg6nZoFqSbfMVsMGuTAluXbvHxv371UpA7Dx6lJU7dqi2uzRvTuemTRNsX6FkSaYMHcrYefMAOHnxIrNXr2ZM795qvBvYuF85BcCuTAnySSE8rdu+bg+b/tmZomO//bEINepVoUbdKlSqXg6LLOYaji51goN0N63L2NiIDt1bMfSPvnH+uzUyMqRO4+rs3LiffadOMXv0aLInkRi4+fAho+fOVW1XtLNjytChCbbPb23N6mnTaDF4MFFRUTx79YqBkyezIZ7lcuOz4fN1Z5nNkio1yqt1jBBC6IokIIQQQqTKlNFzk7XSRc5cOejYszU1G1SjXKVSabowYZCObnq+/eEbRv45iCat66n19C9a29+ac+vaPa7du8fu48dj1W342os3bxjg6KjaLla0KAvHjUvyHMO6duXU5cuqId1OS5dSrWxZqtrbJ3rc7uPHuXbvHgBtOjdT492I1Hjv65/sUUjlKpemdaem1KxflYKF1ZvCoy+6SEBE11sZMWkgRb4rlGC71p2asnPjft5/+MC8tWtxHDQowbYBgYF0dnAgNExZCDRntmxsmDULYyOjRGNpUK0aw7t1Y97atQBsP3KEWhUr0rN160SPu/3oEdsOHwagWdsGOh2lIoQQ6ki7n/qEEEKkefdvP2LfjiNqtTUyMqT/iB4MGNmDbDmyajkyzdD2CIgCtvkYNr4fbbu0wMgo+XWhO/ZszYoF63jz0p1JixfTvHZtjBKYHnH78WOGdumi2m7boAGWFhZJniN6rvpfW7eqKs8/dnNLNAERqVAwafFiAGy/KUCnXm2S87ZECiyZ+TefPgaq1bZAoXw4zh1Dg2bpZ1qMtq/FOo2r4+A4mOIlky6WWrVWRarVrsi5k5dYtGEDA3/9NcHaKHeePOHXxl+mcdUoX55vChRQK6bJQ4aQK3t2VfLC78MHIhWKBK9xgHELFqBQKDC3MGPY+H5qnSetUScHK6tgCJF+SQJCCCFEis2auEitD4I5c+Vg2SZnqtaqqIOoNCdES09drfLkYtCY3nTp0w5TM9OkD0iAiakJDo6D+b3HOB67ubF61y76tG0bb9sWtWvTonbKCkHmyZmTCf37q91+9a5dPHZzA8DBcbA8hdUy99fv2PD3jqQbApWql2P55jmqZVzTC20lICr9UpbRk4dStlKpZB03bvpwmlTuSGBwMFOWL2fxhAnxtqtSujRVSidcyyUxJsbGjO7VS+32py5d4pirKwA9B3Umf8G8KTqvEEJokyzDKYQQIkUe3n2Cy9HzSbazyGLOliMr013yATQ/BSNrdktGThrI2QcH6TW4c6qSD9FadGikWiVj7Ny53H3yJNV9psbdJ08Y+3m+ewm7YrTo0Eiv8WQGKxeuJyw0LMl2FauVZdOBv9Jd8gE0fy2WtC/B+n3L2HZ0VbKTD6Cs19LyV+XIhr937mTPiRMajS+5vP386PvnnwDktsrJwFE99RqPtskICCHSL0lACCEyhOTMmxeacWSveh+4ZyyZGO8ykumBpp66mluY0XdYN849OMTQP/pimTWLRvoF5X/7M5ZOxNTMlE9BQbQeOhQff3+N9Z8cPv7+tB46lE9BQZiamTJj6US5NnXg4L9Hk2xjky8PyzfPTtM1VxKjqWvxu2JFWb55NvvPb6JGvSqp6mvs1N+xss5NVFQUPcePj7W6jC6FhYfTYfhwXnl4ADDReVS6meYWH/mbIUTGJgkIIYQQKXL6mGuSbSpWK0urjk10EI12pPamx9jYiM6923Lm3gHGzxiuWspP00qX+x+zlk0C4KW7Ox1HjiQsPFwr50pIWHg4HUeO5KW7OwCzlk2idLn/6TSGzOjRvad4vfNJsp2D42CsrHPrICLtCEnltVigUD5mr3Di2LV/adwqecVeE5KvgA0rts7FxNSEwOBgWg8divd79QvyasqQqVM5f+MGAH2GdqF1p4RXthFCCH2TBIQQQohk+/ghgFtX7ybZzsFpsA6i0Z6UVt43MDCgRYdGnLy1h+mLJ5A3v7WGI4urdaem9BveDYAzV6/SqG9fvP38tH5eUA7/btS3L2euXgWg3/BuchOkI2dOXEiyzbc/FqHNb811EI32pHQKhpV1bhznjOb0nX2075qyYq+JKV/FnumLxgPwysOD6l27cv/ZM42eIyHBoaF0HTuWtXv2AFCzflX+mD5cJ+fWJrWSQzIFQ4h0SxIQQgghku3cyYtERioSbVPANh/lqyS+VGNal5IREHWb1ODwpW0sWjuDb75NeCk/bRg79XcatVQuxXnu+nWqdOzI7UePtHrO248eUaVjR85dvw5Ao5Z1GTv1d62eU3xx9njSCYgmretp/MZb15J7LWbLkZVRfw7i7P0D9BjUSSP1VhLSvltLhozpDcDz16+p3qULB0+f1tr5AN56elK7e3fVkpsl7UuwZP2sdP/vLITI+OSvlBBCiGQ7fSzpm55f6lbWQSTaFRSo/lPXSr+UZbfLelbtXKjWUn7aYGhoyLJNzgwY2QNQPpGt2a0by7ZsITwiQqPnCo+IYNmWLdTs1k0193zAyB4s2+SMYSLLBArNCQsN49K5a0m2q56JrkVzCzP6j+jOuQcHGTK2j0brrSRmlONgZv/liImpCQGBgbQdNow/5s/nw6dPGj1PVFQUO48epXKnTly/fx9QJph2HF+drus+CCEyD/mEIIQQItnOHE+6/kNqC7ylBcHBST91LWlfgg37l7Pt6CrKVLTTQVSJMzQ0ZOzU31mwehpm5mYEBgczfOZMSrZowdZDh1JdPT4qKoqthw5RskULhs+cSWBwMGbmZixYPY2xU3+X5IMOXXG9QUhwaKJtLLNZUqZi8ld5SGuSuhaNTYzp0rc9Z+8f5I9pw8iZSzv1VhLTvltLNh1UrjKiUCiYt3YtxZs0YdGGDRqpyXL6yhWqdu5MZwcHPH2UdT9+H9ePpRudschinur+0wp1pmDIKhhCpF/psxSyEEIIvXn26AXur98l2sbIyJBqtdPfsptfS2zY93fFiuLgOIiGLeqkyartrTo24btiRZmj/xyUAAAgAElEQVQwdBq3rt3jxZs3dPvjD2b98w/tGjakea1a/O+HH9Tu7+6TJ+w7dYodR47EmuNequzPTF00HrsyJbTxNkQizqgx/aJKjfIYGxvpIBrtCkmgBoShoSEtOjRixMQBFC5qq+Oo4qpYrSz7zm1i4vAZnDpyDl9/fxzmzGHRpk20a9CA5rVqUdHOTu1E3Ut3dw64uLDr2DHVNCeAQkUKMsnZgfrNamrpnQghhHZIAkIIIUSynHe5kmQbu7L/I0fO7DqIRruC4xn2XbBwfoaN70+bzs3S/HxruzIl2Ht2Iwf+PYrzpMW8evGG+8+e4bR0KU5Ll1LU1pYGVatSOH9+8tvYUMDaGqucOfH198fd2xsPLy9eeXjw3/nzvHjzJlbfhYvaMnryEJq2qZ8mEzCZgavL5STbVK+T/qdfhIWGxVtzpl7Tmjg4DqbYz9/rIaqEFSpSkLW7l3DxzFWmj5vPrWv3eO3hwby1a5m3di3WuXPT6Jdf+L5wYfJbW1PAxgab3Ln5GBiIx+fr7rWnJy6XL8ep4ZLbKieDx/aha9/2mJia6OkdCiFEykkCQgghRLI8ffQ8yTYZYfoFxB72bWWdmyFjevNbn3bp6oO/gYEBzdo2oGHz2mxZs5s9Ww9y4/IdFAoFL9684a9t29Tuy9DQEPsKJWn5axM69miVrn4PGdGzx25JtskItVi+nn5RuUZ5xkwegn0F/U95Skyl6uXYd24Th3YfY9u6vbi6XCYsNAzv9+9Zv3dvsvoqXvJHmrSuR4+Bncia3VJLEacRMgVDiAxNEhBCCCGSxfudb5Jt7CuU1EEk2hccFEy2HFnpN6wbvYb8RhZLC32HlGImpiZ07deerv3a4+v9nuMHT3Ps4GnOnriQZB2BClXL0Pa3ZtRtUgMr69w6ilgkJigwmMBPQYm2yWNjRdHvC+soIu2Jngr1v9LFGTNlaLorqtm4VT0at6pH4KcgTh87z7I5a7hz/X6Sx1WpWYF6TWpQv1ktbL8poINIhRBC+yQBIYQQIlm83nkn2SZvfmsdRKJ9bTo3Y+lGZ70UtNMmK+vcdOjeig7dWzGgkwOHdh9LtP246cPS/NPmzMbrnU+SbfIXzKuDSLTP2NiIpRudadK6Xrqe7mOZNQuNW9XD461XkgkIIyMjthxeqaPI0hZ1/ollAIQQ6ZckIIQQQiSLt2fSIyBsMkgConWnpvoOQYh4eXsmnYCwyZ9HB5FoXx4bK5q2qa/vMHTKKAMUDhVCiPik7epZQggh0pykRkAYmxiT2yqnjqIRInNSZwSETb6MkYDIjNJ6gVshhEgp+esmhBBCbYEBgYkuTQlgkzdPuh4mLUR64K1WAiJjjETKjIyMMu8ICHX+/yFFKIVIvyQBIYQQQm2e8tRViDRBRkCkX+rcPMsUDCFERiUJCCGEEGrLTPPOhUjL1LoWZQREmhQZGZlkm8w8AkIIkbFJAkIIIYTa1Hnqmje/jQ4iESJzU+datM5npYNIRHJFRiSdgDDOxCMgZAqGEBmbJCCEEEKoTb155zICQghtUysZKCMg0qQINRIQhjICQgiRQUkC4v/s3XdYFFfbBvB7toCACkgTC3bsvXdsiSkm5k2iJjGJ6b2/6e1LNz2mvilG00yiqWpMjA27sSeWqNgVBaSrCGyZ749BZGHZOcvuzs7u3r/r4oI9c3bmgXXHmWfPeQ4REQkrLChW7dMoPlaDSIhCW2FBkWqfhCSOgNAjkSkYoTwCgoiCGxMQREQkzGqxqvYJCzNrEAlRaFN7LxqNBpj5XtQlkSkYobwMJ6dgEAW30D27ERGR2ywCCQiT2aRBJEShTS0BYTIz+aBXLEJJRKGMCQgiIhJmtTIBQaQHFpX3Iofw65dIDYhQXoaTIyCIghsTEEREJMxqsaj24RQMIt9THQFhYiJQrzgCgohCGRMQREQkTGgKBm98iHxO7b3IkUj6JVQDIoRHQBBRcGMCgoiIhIkUoeSND5HvqY+A4A2sXtntdtU+RkPoXqKLTcHQIBAi8onQPbsRUVARuF4hLygvV5+CYWYCIqBwLnXgYSIwsNlt6gkIKYQTEEQU3Hh2IyIiYbzxIfI/ToUKbHaBpJ/IKAAiokDEBAQREQkTSUCYufwfkU8xERjYRKZgGEJ4BIRQ7oUjt4gCVuie3YiIyG1qS/8BvPEh8jWR9yGnQumXbFe/eTYYOAKCiIITExBERCRMbAQEb3yIfEnkfchlHPWLIyBcEytCyREQRIEqdM9uRETkNpG555yCQeRbTAQGtqioSNU+HElGRMGKCQgiIiIiIo106t5etU9CUpwGkRARaY8JCCIiEmYyqQ/rtgrMTyeiujMY1S/fbAJLPZJ/iIxOSWnVTINIdIpTMIiCGhMQREQkTGReucj8ZiKqO6NQAsKmQSRUF1ar+mvDGh5EFKyYgCAiImFGgREQvPEh8i0DE4EBzS5wjhRJMhERBSKe3YiISJjIRbHIp3tEVHccARHYhEZACCR7gxVXwSAKbkxAEBGRMKNRfe6ynXPPiXzKaBAZicT3oV6JnCM5BYOIghUTEEREJIyfvBL5n0gRSpFh/uQfIoV6OQWDiIIVz25ERCRMqAYEp2AQ+ZTIp+McAaFfNoH6HKE8AoJTMIiCGxMQREQkjDc+RP7HkUiBTSRJG8oJCCIKbuqTeYmIoFRUt5Rb/HZsNeVl5SgrLdMgmtpJkoSw8DBNjlVeVu6XT4BEPpkqPVPq99cCAMxhZhgMvs2zy7KM9IWrkXsi36fH8aXMw8dU+yz9fSX27j7o+2C8RJIk9OrXFa1TW/r0ODabHVaL9udFq1X9nGiz2nTxPtTyvBgoRJJDItNsgpX6/zIAxz8QBS4mIIhI1fJFa/DgzU8jNyfP36HUanSvy/0dAgCg/5De+P7Pz4Ru1OuiuOgkrrvkLmxZ/49P9u8NN11xn79DAAA0iovBrAWfoGO3VJ8d47aJD2LhvGU+279evDv1U3+H4DaDwYAlW37yWRJi8W/L8d9bn0FBfpFP9u+p7OMnkBrb399hAABGjB2CmT+/7+8wdEOkCKXJxEt0IgpOoZteJSJhP82ar+vkg578tWoTtm/912f737B6i66TD3qSn1eIn779zafHWL54jU/3T3Vnt9ux6LflPtv/D1/P023yQW+W/bEKGf/u93cYuiG0DGcIj4AgouDG9CoRqao6X/WmKcP9GIl+7dh5FOvW7wMAWC3qFc7rylpl6O6I4Z3QulWCz44VqM6UWjDrOyUxIFJt3hN2+7mBwEMGpaJePbNPj0fqduzMxPGsQgC+rYNgsyn/toxGA6ZcO9Rnxwlk/2w7gg2blMSDxQ9TVfRKbApG6NaAYBFKouDGBAQRueXdt671dwi69P5HiyoTEFq5/tohuPI//TQ9ZiDIzimqTEBo6ZMPb0SLlHjNj0uObr3rc3zzrXavv8lk4HmxFm++83tlAoLOESlCaRJYcYiIKBBxfBcRERERkUZYhJKIQhnPbkREREREGuEynK5xCgZRcGMCgoiIiIhIIzaBpaU5BYOIghUTEEREREREGrEJFMc1GHiJTkTBiUUoiYiIyCf2ZGQBAOrVMyOleZyfoyHSB5tNZARE6F6ii0zBAKdgEAWs0D27ERERkc+Ul1vRs/9TAIA+vVph+eIn/RwRkT5YBWpAsAglEQUrJiCIiIh05IefN0CWZcRER2LMqC7+DoeIvMwusAoGi1C6xiKURIGLCQgiIiIdmXLzJ5BlGV06N2MCgigIiYyAYBFKIgpWTEAQUUApLbOgvMzq9qcfUVH1YDJxSKs32Wx2nD5d5vZrYQ4zITIizEdREYWe0jILykotbj+vfv16MHKov+bsAjUgOAWDiIIVExBEpFuZxwrw/Zx1WL02A1u2HkJB4WmUl6tXD3fm59n34bzRXb0cYegoK7Pip182IH3lLqz7ay+OHy/E6ZKyOu3r6kmD8OmHN3o5QqLQcOhwLmb/8BfWrNuLrX8fQmFRSZ3Pi3/MexhDB7f3coSkxiqwCkYoT8GA0BQMDeIgIp9gAoKIdKfkTDkeefw7fP3talgs6kNVybe+nrUaz77wE7Kyi/wdClHIOnWqFA899i2+m70WVqv6J+ikXyKrYBg5BYOIghQTEESkK4WFJbj0irexcfMBf4dCAJ5/+Re8+sZ8f4cR9Gw2O/7vxZ8BnCuulpVdhKef+7FG34H92+LCsd0d2goLS/Dnku1Ylr4TBw/n4tixApw5U442bZLQvl1j9OvTGpMmDITB4PqTxc9mpOPQ4TwAwDNPjIfZbMTOfzPx8WfLsG79XuTmnkTrVono0rkZrrlqEPr0auX27/rn4m2Y+dVK7NyZiZIz5ejUsSm6dmmOu+8YjaTEaLf3Fwpyc09i3OVv4Z9tR/wdCnmBTagIJadgEFFwYgKCiHTljntn1kg+hIebcNWEgejdqxV69WgBSZKweetBbN5yEN/NXoeSM+UO/Q0GCfXr13NoY0Ev9/3w8wanyYe04R0xcngn9OrZAs2axWHHzqPYvOUg5s7fgoy9WTX6169fz+HGl/UfarLZ7Hhr2u8Obbm5J2u0AcCdt41ySEC8/9EiPPHMHKefqmYeK8CKlbvw6efp+N+nS/HuW9eiR/cWtcbx3ex1WPvXXgDAYw9fjHfe+wMvvPKrw76zsouwZl0GZny5As8/cznuves8od/x1Oky3H7X5/h57qYaMS5ash1fzVqFGZ/cghHDOwntL1TIsoyb75heI/kQGRGGSRMGVJwXW8JmszucF0vLHGtCGI0GREWFO7TxvOgfYgmI0H1tBGZgcBUMogDGBAQR6cY3367B3PmbHdoSEhrg+6/vRv++bRzau3dLwQ3XDcON1w/HFVe96zA9wGCQkP7nE2ifmqxJ3MEoO6cI9z74lUObJEl45onxeOShixza27VJwvhxvfHIgxfhups+xsJF2xy2P3jvWDz634t9HnMgMxgMuOKyvgCUxA8ANGwYgfOcrILRo5tjAiE7pxg2mx0R9cLQv38bpDSLQ0rzOFhtNuzfn4PFy3YiP/8UNm05iPMvfg3/bHpZaKTBex8swguv/AKz2Yh+fdqiW9fmKC21Yt36vdi95zgsFhsef3o2OnZoorpah12WccMtn2DBH38jOjoS/fq0Rsf2TXDseAFWrNqNnBPFOHHiJCZd+yH+3ToVjRrVF/3TBb3PZizHoiXbHdqSG8dgzqx70LOH47+Fnj1a4KYpw3Hd5CGYcM37yM09WbnNZDJgTfozaNUyQZO4qXY2gVUwQjkBQUTBjQkIItIFWZbx+lu/ObQlJjTE8sVPIqV5XK3P69mjBZYvfhLDRr2E7BwlCWG12vHok9/jlzn3+zTmYPbxZ8tQVFTi0Pa/96Zg8tWDa31O/fr1MGfWPbjhlk/x4y8bKtvfeHsBrps8BMmNY3wWb6AzmQz4YvptAIAff9kIWZaR0jyuss2VNq0T8forV+HqiQMRExNZY/vJk2fw1P/9iM9mpOPU6TL83ws/46P3pqju98Wpv6JL52b47KOb0LVL88p2u13Gcy/9jDfeXqD0e+VX1QTElq2HIMsy/nNpH0x7c7JDgqGwsATX3fQxlizbgVOnSvH2ewvxwrOXq8YXCmw2O958Z4FDW9MmsVi++EmX76f+fdtg+aInMXTUi8jPPwVAKST75LNzMOuLO30aM6njCAjXJKEilBwBQRSoOMGMiHRh8dIdyNiX7dB2393nuUw+nNWsaSPce9cYh7ZFS7Zj3/4cr8YYKsrLrZg+c7lDW4/uLVwmH84yGg14/tnLHZY8LTlTjq++We31OEkx5dqhuPO2UU6TDwDQoEEE3n79Ggwdoqx28PW3q5F5rEB1v1FR4Zj304MOyQdAGWH07JOXoXUr5ZP0jZsP1HjvVifLMvr1aY2vZtxeY3RDTEwk3nljcuU0ne9mr1ONLVTMX7AVR47mO7Q9dP+FQsm8li3iccctIx3a5v22Rei1J98SKULJZTiJKFjx7EZEuvDnYsdh+7GxUbj5xhHCz7/5hrQaN2DfzeGNTF1s+fuQw9BtAHi02rQLV1q2iMcV/+nn0Dbr+7VeiY3qxmCQMOHy/gCUEQy7dh9Tfc59d52HxISGte7vP+P7Vj4+ciRPdX8v/N8VtW5r3SqhsqDl8azCOi8rGWyqT71ISozG9dcOEX7+HbeOQv0qdR/sdhmzf/jLa/FR3YhMwWB9DiIKVkxAEJEurN+w3+Hx5EmDHC6c1dSvXw+Tr3L8hH712j1eiS3UrN/o+Fo0SY7FuIt6urWP26t98pqxN6tGUoN8Q5ZlZOcUYdOWg1i5anfl15kqxVpFRgcNGZTqcnvLFvGVPx9WSUCYTIYadVyqa5Gi7E+WZRzN5Kf0APDXhn0Oj6+/dgjqhZuFnx8bG4WJVw5waON50f84BcM1TsEgCm6sAUFEurBth2OF99Q6FJDs2KGJw+MtWw95FFOo2rbd8bVo2zZJ6IKwqo4dmtZo2/L3IdVaAVQ3Z0rL8c23a/DJ9HTsyVAKRLpy4MAJ1X22a9fY5faqoyNOnCh22bdVy0SYza5vqJKSzhXGzM07WTnFI1RZrfYaI1Xat3P/vNihPc+LeiMyAoJTMIgoWDEBQUR+V3KmHGVljkOuW6So136ormVKvMPj4uIzOHWqtMaSnORaQcFph8d1eS3qR4UjLq4+8vJOVbYdzcx38Qyqq4y9WRhz0as4caLmCJPwcBPCKz4xt9vsOHW6DABqLF3rTMOGES63GwznbpDUPoyMVtkXAFRNcfHTTaCoqAR2u+PfIaUu58UWjufFrOwiWK12hzotpC2RGhCcgkFEwYoJCCLyu8LC0zXaWlRLJoho0aLmcwoKS5iAcFNhoePqFy1T6vZJdMuUeIcERPX9kudOnSrFxMkfVCYfLrqgB66aOBAD+rVBTEwkIuqFVfZd+9dejL5gqr9CJTcVODkvVk8miHD2nKKiEsTFcalTf7Ha1GucGDgFwyUmKYkCFxMQROR3VmvNT4PUPn11pmGDms+xCgx1JUfV/2YNGtQtgdOg2mvI18L7Zv+4Hrv3HAcAXHfNEJfLa1ZfTYH0zdmn5M7OcWoaOHmOhe9Fv7ILjIAwcgoGEQUpnt2IyO9inSwfWFR8xu39FBbV/IQ9Jtr50oRUu5iYKIfHxXV4LQDlU9aqovlaCHGn3MY/2w5X/nzHraNc9t3PZWkDirNlVZ2d49QUFzs5L9ayZCtpQyQZazLyM0IiCk5MQBCR39WvX6/Gpz3H67BW/bHjjs+RJIk3vXVQ/eak+t9V1LFjhQ6PY2OjaulJVZ1NAJ08WaraN2NfduXProo22u0yfp2/yfPgSDMx0TXfL8ezCp30dC2z2rm0XrjZrZU0yPvsAqtghHIRSk7BIApuoXt2IyLdkCQJ7do6Vtz/p9pKDCK2bT/q8Lht60QYDO6t3kBAarXXovrfVcSJEyeRnVPkcr/kXPNmjQAAWdmFKC93PVf8bF8A+Htb7e+Z72avxT8utpP+hIebatTCqct7sfpzUlP5PvQ3oREQLEJJREGKCQgi0oX+fds4PE5f8a/b+1i0ZLvjPvu39SimUDWgv+Nr8fe2wzVWxlCzaMk2h8f1o8LRpXMzj2MLBWcTNWVlVrw17Q+nNVLO6tYlpfLnx5763ul0ma9nrcZ9D33t/UDJ5/r3be3weFn6Trf3sWip43lxQD+eF/3NJjQCInQTECLT0DgAgihwMQFBRLqQNqyDw+PFS3cg50Sx8POPZuZjybIdDm3Dh7T3Smyhpm+fNoiMOLd6Qnm5FXN+Wu/WPmZ+tdLh8aCBqSyqJuiBe8dWDkF+4ZVfkNj8TnTq8Rh69HsKPfo9hdfe/K2y75TrhlZOvdi85SC69H4cDz06C+9++CcefvxbpI15GbfdPQNnSi148L4L/PL7UN0NH9bR4fHvC/9xazWZvfuysWr1Hoe2YUM71NKbtGITGAHB8yURBSue3YhIFy4d1xvx8Q0qH1ssNjz7/E/Cz3/q2R8cqsbHxETisvF9vBpjqKgfFY5JEwY4tE19fT5OnhQrRjl/wVasXpvh0Hbj9cO8Fl+w694tBe++dS2SEqMBKCMhDh3ORcbeLGTszcKJ3HOJuciIMMz87LbKqRh5eafwv0+X4vGnZuPDj5dgw6b9qBduxntvX4txF/X0y+9DdXfl5f0cVgQ6U1qO51/+Wfj5Tzwzx2GufGJCQ1w0trtXYyT3OVvhpCqDwSBUB4GIKBCxxC4R6UJ4uAm33zwSL079tbLtq1mrMaB/G1w/eajL534yfVmNT+hvuG4YIuqF1fIMUnPX7aPxxderKi+Us3OKMOWWT/HdV3fBbK59aHDG3izced9Mh7ZWLRNwIW963HLj9cNw1cQB2LjpADIzC5B5rAClZRYAQL8+jsPye/dsic1/vYj3P1yEtX/txe49x2G329EkORbDhnbANVcNQrs2Scg8VoAnHr2k8jnOXDd5CEakdQIAhJldXyK0bZtUub/Bg1JrbDcaDZXbmzaJVf2dR4/qUrl0a7OmjVR6h4aoyHDcfEMa3pr2e2Xbp5+nY0C/tphwRX+Xz532/kL89vtWh7ZbbkxDWBgv/fzNZnVd2yWUC1ACYkUoOQeDKHDxfyEi0o2H7r8Av87fjG0VBShlWcbd93+JPRnZeOLRcYiKDHfoX3KmHC+8/Ave+3CRQ3tqu8aVNz5UNx3aN8HjD49zSAj98ec/uPDSN/Dhu9fXKBoKAL/O24x7H/oKeXmnKtsMBgkff3AjhxPXQUS9MAwdLDaNKDIiDI88dJHLPk2bxOJJlffFddcMEY6vXZskl/szGg2qx6tq9MjOGD2ys3D/UPHEo+Pw2+9bsXvPcQDKiia33Dkdu/Ycx8MPXlgj0XrqdBmeff5HfPzZMof2Lp2b4aH7L9Qsbqqd2ggIYwjXfyCi4McEBBHpRliYCV9Ovw2jL5xaeRNrt8t4570/8On0ZRg1sjNapsQDEnDocC6WLN2BU6fLHPYRExOJL6ff5lDDgOrmkYcuwrr1e7F46bnaGmvWZaBn/6fRv29rdO3SHA0bRiDnRDFWrtqNg4dya+zj+Wcux+CB7bQMmyioRNQLw5fTb8P5416rrP9gtdrx6hvz8cH/FmP0iM5ISYkDZODAoRNYsnQHSs6UO+wjLq4+vpx+G8LDedmnB2pFKLkCBhEFM/5PRES6ktquMRb99iguvuwtHDt+bv360yVlmDt/s8vnNk6KxtwfH0DnTlxtwRuMRgNmf3MPptzyicPfXpZlrFu/D+vW76v1uZIk4fVXJuGOW0dpESpRUOvSuRkWznsE4/7zlkNx3lOnSvHLvE0un9u8WSPM++lBp6OWyD/UEhCcgqE+BUPmFAyigBXaZzgi0qX2qcnYsPo53HPHGKH5ymazEXfdPhob1zzP5IOXhYebMOuLO/DZRzcJz8sfMigVKxY/yeQDkRd16dwMG9c8j9tuHgGTSf3yLTzchPvvGYu/Vv4fkw86ozoFw8AREEQUvDgCgoh0KSYmElNfmoiHH7wIi5Zsx7IV/+LI0Tzk5Cif/iUkNETzZo0wYlhHjBnVxWEFDfIuSZJw1cSBuPyyvli7bi8WLt6Gf3cdw4ncYpw6WYq4uPpITIxGvz6tcd7oLkwCEflIXFx9vPXaNXjs4XFYvGQ7lq3YhaOZ+cjJKYbBICEhoQFSmsdh5PBOGD2yMxo1qu/vkMkJtWU4jZyCoYojIIgCFxMQRKRrcXH1MWnCgBrLQpL2wsJMGD6sA4YP6+DvUIhCWmJCQ1w9aRCunjTI36GQm2RZht2uVoQyxAcocwlSoqAW4mc4IiIiIiJtqE2/ALgKBhEFNyYgiIiIiIg0YFcpQAlwCgaLUBIFNyYgiIiIiIg0YFWp/wBwBAQRBTcmIIiIiIiINGAXmoLBy3MiCl4sQklEROQFmccK/B0CATh9qszfIRDVSqS+YqhPLzAY1P9Idnto/42IAhkTEETklq9nrfZ3CLq0afMBzY+5avUelJVaND+u3hUVn/HLccdc+Kpfjkv+ZbPZeV6sxZatB/0dgu6YzOqX3uXloX1eF5mCIlJLg4j0iQkIIlJVtSDUbXfP8GMkAcKHS4hJOLfvz2ak47MZ6T47VjDw9WJu8QmNcOxolo+PQnUVHdPQZ/s++160Wu08LwqQfP5uDAwms1m1j9Vi1SAS/TIITEERWU2EiPSJCQgiUjV4RD/MnfOHv8MICDGx0Wib2spn++89sDvqRYSj9AyHmasxGAzo2b+bT4/x6Av34sXH3kJRYbFPj+NLVosVdrvri3mz2QTJEDjz0iVJwojzh+DC/4zx2TEGj+iPhfOW+Wz/wSSxcTxatWvh7zB0wWg0QJIkl9MsQj0BITICwsYREEQBSy8JiHoAGgCoX+2relskgHIAeQC+BOCfcbZEIWbilMvQuUcH5J3wzxz3V558B7u2Z7js8+YnzyM+KU6jiJyTJAl9BnRHVIMonx0jLj4W6dvmYs/OfX6bJ3zTFfe5vEBuGNMQ733xioYROdeidXO0apvi02OMn3Qhxk+60KfH8LVbJz6IhXOXuuwzZ/Hn6NnPt8mcQHPd7RPRvW8XFOYX+TsUAMCcL3/F/B//dNnnjv/egAFD+2gUkcJgMKDPwB6oFxGu6XH1zGQ2weJimoUl5BMQ6slOkWKeRKRP/kpAtAHwHIBBAJrXMY4OAB7wZlBE5JwkSejas5Pfjv/RG5+r9uk/tDeat2yqQTT+l9w0CclNk/x2/LAws8sEhNEgIe28wRpGRKQ9SZLQo08Xf4dRadXSv1T7dOvVie9NHQgLM7tMQFitoZ2AEBltpTZqi4j0y18JiDkAenq4j2RvBEJERO5Rm5/LublE2rNY1AsXmkzq9QfI90wm15ffIT8CQiABYWMCgihg+WNCZ30APbywn7+9sA8iInKTWfXiObQruBP5g0jdALPACgzke2orYbAGBFfBIApm/khAlIR2RggAACAASURBVAE46YX9rPTCPoiIyE1h4WEut7saWkxEviHyqbnIEpDke2qJIFmWQ3okGVfBIApu/vifyAJgJIDLAbQAEA2l2GQDACkARKrIlQBY76sAiYiodmoJCKvVBrvdDkMArZpAFOg4AiJwiCSCLOUWGEO0cKfYKhhMQBAFKn/9T7Sp4qu67wFMEHj+GiirYRARkcbMYerzyC3lFoTXC82LZyJ/EBl5xBEQ+iCSCLJarEDIJiBEVsHgFAyiQKW3j6eGC/ZL92UQRERUu3CVERAAUF7GaRhEWuIUjMAhNAIihFfC4BQMouCmpwREBwCi68ql+zAOIiJyQeTTu/JyDlIj0pLI0o2cgqEPYWHqSdyy0jINItEnoSKUXAWDKGDpKQGRJtjvNFj/gYjIb9RqQABAOQtREmlKZAqG2cxlOPWgUXyMap/cnDwNItEnsSkYTEAQBSo9JSBEp1+sgVLIkoiI/ECkBkR5GUdAEGmpIK9QtQ+nYOhDYuME1T7Zx05oEIk+GYSKULIGBFGgCsQExDKfRkFEAUmSJH+HEDJEakBYykN3/nLAkWV/R0BekJOVq9onLiFWg0hITUKS+oJvIq9nsBIZAcEaEESBSy8JiPYAkgX7pvswDiIiUhEWLjACgjUgiDQjyzJOqAzZD68XjuiYhhpFRK4kJquPgMjJCuEREAJLOHMVDKLApZcEhOjoh9MANvgyECIick1kHnkZp2AQaaYgv0hZttEFkU/dSRscAeGaSALCxiKURAFLLwmINMF+qwBwXC8RkR+JFKEUKYhHRN6Rc1z90/IkgU/dSRtCNSAEXtNgJbIKBmtAEAUuvSQgREdApPsyCAoMmZmZcklJCSctE/mJWBFKJiCItCLyabnITS9pI1FkBERIJyDUb09kOy8D9SIrK0suLi7mC0LC9JCAaAegiWDfdB/GQQFixYoV6NChA77//nue7Ij8QKwIJRMQRFoRSkAkx2sQCYlISFJ/LUJ6CgZHQASULVu2IDU1FTNnzpTtdmaGSJ0eEhCiox9OAdjoy0AocBw+fBgTJ07EsGHD5C1btvBkR6ShMJERECxCSaSZE9nqN6ucgqEfDaLro15EuMs+J7JzYbWG5k02V8EIPFlZWZgyZQoGDBiAtWvX8rqcXNJDAiJNsB/rP1ANK1asQO/evXHLLbfI2dnZPOERaUBoCgZHQBBphlMwAo/a62G12rD5r781ikZfykrVE9h2FqHUpfXr12PQoEGYPHmyfPToUV6Xk1N6SECw/gO5RZIkh8d2ux2ffvopUlNT8cYbb8jl5eU84RH5kEgRynKugkGkmYx/96n24QgIfenUrb1qnxWL1mgQif7k5xWo9omObqBBJCSi+nW5LMv4+uuv0b59e7zwwgvymTNneF1ODvydgGgDoJlg32W+DIQCX1FREf773/+iS5cumDdvHk92RD4iNAWDRSiJNFFWWoYNa7ao9mvavLEG0ZCoISP7q/ZZHqoJiFz1BERsfKwGkZAnTp8+jaeffhodOnTA7NmzeV1OlfydgEgT7HcSwCYfxkFBZM+ePRg3bhzOP/98eefOnTzhEXkZl+Ek0o8Na7ai9EyZyz4xsdFo1a6FRhGRiOFjBqn22b51F/LzCjWIRl/yTqgnIOKYgAgYhw4dwoQJE1i3jSr5OwEhOv1iJYDQrMRDNVQf6lWbhQsXolu3brj33nvl/Px8nvCIvMRsNqn2KWMRSiJNrFyyVrXP4BH9YDD4+5KPqkpp1Qwt2zR32cdutwu9vsFGZAREowQmIPRC9LqcddvoLH//b+St+g8xALoCGAlgEoDrAFwGYBSA1gDE3hkUdKxWK9599120a9cOH374oWy1WnnCI/IQR0AQ6cfKJetU+wwbPVCDSMhdwwRGQYRiHYg8kQREXIwGkZC3sW4bAf5NQLQGkCLYN91J2xAAL0OZmpEP4B8ASwB8C+ALAD8BWAxgH5QpHOkA7gGQ7EHMpAOimdaq8vLycOedd6Jnz55YsmQJT3ZEHmARSiJ9yMstwM5/dqv2GzqKCQg9Gj5aPQHxx9ylKMgv0iAa/cgXmILRiFMwdKMu1+VV67bNnz+f1+Uhxp8JCNHRD8UANld5fDGAv6BMy3gcQC+oj3CIqjjeuwAOAngdQEM3YqUgsW3bNowaNQrjx4+X9+3bxxMeUR2wCCWRPiz7YxVk2fV/Za3btUDTFH72okcDh/eFSWVK26ni03h/6qcaRaQPu3fuVe0TxykYQWHPnj24+OKLWbctxPgzAZEm2O9s/YcuADYAmAegnwfHDQPwXygjJtp5sB/yk7pkWqv75Zdf0KlTJzz22GNycXExT3hEbggLF0hAcAoGkU9ZLVa8/6r6jelQTr/Qraj6kegzoLtqv5n/+05opZNgkJ9XiN071BMQTVOaaBANifDGdTnrtoWWQBgBkQ5l6sQGAH2qbZMrtt8PYByUOhCNAfQG8CZcF65sAWAVgLaiAVNwKSsrw9SpU5GamooZM2bIdrudJzwiAWazSAKCUzCIfOnrT+fgwN7Dqv2GcfqFrl0y4QLVPlaLFXdc/TAyDx/XICL/mj9nodCoHtaACD6s2xY6/JWAaAklASDiNihTJ+pVaSsH8BqU5MEIANMAzAewHUA2lCkb/wVwu8q+EwF8Iho06YM3Mq1VZWVl4YYbbkC/fv2wevVqnuyIVLAIJZF/7fh7F6Y+PU21X72IcAwcVv2zG9KTK6+9BE2aNVbtdyI7F+MGX411K4N3VfozJaX4ZNqXqv0GDu+rQTQkytvX5azbFvz8lYBIc6Nv9REKqwH0APAogP0qz/0MwFGVPiMA/MeNeChIbdy4EYMHD8bVV18tHzlyhCc8olqEswglkd/s2bkPN11+H86UlKr2vfyacYhqEKVBVFRXYeFheODpO4T65uUW4JoLb8UzD05Fbk6ejyPTVnlZOe6b8jiOHMxU7TsozZOZ2BQoztZtu+yyy1i3Lcj4KwEhOv2iurcADAXwrxvPSRfoM7FO0VBQmjVrFtq3b4/nnntOLikp4QmPqBozi1AS+cWCnxdhfNp1OJ6Zrdq3XkQ47nviNg2iIk9dfs04tO8sNiPYarXhi4++w9BOF+Oe6x7DnK/mIvv4CR9H6Fsrl6zDpcOuxcJ5y1T7NoxugJFjh2oQFenFzz//XFm37eTJk7wuDwKuS+/6Tpqb/WUAjwB4ow7HOijQ50IAZgC8Yg4A3h7q5UxJSQmeffZZTJ8+Hd999508adIk3x+UKECwCCWRdmRZxoY1W/Dmcx+4Nfz+xruuQVJygg8jI28xGg14e/qL+M+I61F6pkzoOSWnz2DunD8wd84fAIAOXdph2OhBGD5mEPoO6oHweuG+DNkj5WXl2Lx+G9akr8fvvyzGnp37hJ87+ZYrERkV4cPoyF1aXJefrds2c+ZMzJgxQ77++uthMBj8dW1eD0ADAPWrfVVvi4RSNiAPwJcAzvgjWD3yRwIiBUoNCHc8jbolHwBAfYyi8o+kCYBDdTxGUDp48KAMoLIYkLe+e7qPpUuXeu13VHP48GFMmjQJQ4YMkadNm4bevXszEUEhj0UoiXwr70Q+Vi5Zh+WL1mDF4rVuD7dPSk7Anf+90UfRkS907t4BUz94Bvff+GSdnr9rewZ2bc/AJ+98AUmSENsoGgmN45HYOB4JSRXfKx4nJsUjISkOEVERMJlMMJqMMJmMMBmNMJpMMJmMMJqMqjeWsizDarHCYrHCarXCUm6BxWJFWWkZcrJycTwzG8ePZuN4ZjaOHclCVmY2jh3NRm5OnmqhSWfC64Xjxruvrjy243c4PIbq9SRcbkdt/eDqWtZ5e+2xOPYvKMjHqeIz5zZUyD2Rj0OHDsl6uQ6v/n3Dhg3Qytm6bR988AFWr14tDx48WIvr8jYAngMwCEBz1O3+uQOAB7wZVCDzRwIizc3+MwC85MHxRBcKTgYTEA5atmzp7xB0Y9WqVejbty9uuukm+aWXXkLjxo2ZiPCC8rJyWCxW2Gw22Gx22KxWWK022Kw2WK1W2KxKe8lp95PGdrsddrsM2W6v/Nlut0O2y7DLdtfba7Sd+9lut0OWZdfb7Y7ba+xXVj8u4P7Fi8sLLdGLCTjfZ9Xn550oUP37799zEO+/9plDnD67IJRl4X3WGkMtv7ezGGrsE8onQJJBgsFggCRJMEjKz5AkGAyS0mYwVGwHpCo/GwwGSFV/ruwrVTzfAIN0bh9Slf1JZ/df5eez7Q7xODzn3LEMBoPQzW1OVi6yjuUoNylmE8wmE0xmU+XNCtXN6ZOnkX38BHKycpGddQK7tmVg+aI12PnP7jrdoAGAyWzCe19ORYPo+l6Olnztsqsuwo6/d+NTgUKMrsiyjPy8QuElLWtjMBhgNBmV/5dsdof9+0NZaRn6tBztl2P70wz8irvxiL/D0JWqddteffVVNG/e3JfX5XMA9PRwH8neCCRY+OMmajoA0bT8TgC9AIiNR3NuBoApAv0uArDAg+MEI86zcqJhw4Z46qmncN999yE8PNzhPZSVmyk/9fbdyMspUm5S7MqNUcsWrdGjW89zN72y3cUNqtpNbdUbWMebVrWbWrnK82seQ+xmWq7y/Npu2MvLLCgrLUN5WTnKyy0ViQYLLOVWWCwWWC1KosFut9fyV3afyWSq+LvKfrs4IgpFkiTBaDLCbFaSEiajESaz+dxjs5KkMJlMlW3miuRFZR/T2TajQx+T2QyjUWk7m3w5m5w5m7gxGM4ld84mYwxVEz7Otjvsw3H72SSNocqxajxHkpRPfSs+/T17XlPaLJXbrFYrysuVbUUFxcjJylWSDcdzkJOVW6fkqpoXpz2Ba2+d4PX9kjZkWcYrT76Dj9/+wt+hEAWEyMhIPProo3j44YcRGRnp7Xvb+gCK4fk98xMAXvE8nODgjwTEPgCtBfrZAPQH4Ol6QysBDBHoNwjAWg+PFWx4F+dC27Zt8eabb+LSSy+tfB9l5WbKU+6ZgD++Xe3P0IiIKATdcu+1eOrVh/wdBnnBz9/+hkfvfB5lpZ58BkcUOlJSUvDaa6/By3XbzAByATT0cD9DAazyPJzgoPUqGM0hlnwAlOEuniYfJADdBPsGdglh0tzevXtx6aWXYsyYMfL27dsrkzWS32riEBFRKDIYDHji5QeYfAgil111EX5aNhOpndr4OxSigFC1btumTZu89SGqBcBIKKMXZgH4DcAKAFugFJcUUQJgvZfiCQpa14BwZ/nN17xwvNYQy1iVQmy1DKIali9fjm+//RZ2u13OyT/ul2FFREQUmuo3jMJ7M6di5AVcmjDYdOnREX+sn4OfZs3H2y9+hMzDx/0dEpHurVu3Dl9++SWsVqtsMpm8cVm+Cc4/FP8egMh8tzVQVsOgClqPgEgT7LcMSmZJq+PtAGD1wvEoxFx00UXYvn07XnrpJalyOSANliMiIqLQJkkSLrlyLBZt/JHJhyBmNBpw5bWXYPm2uXj9f/+HwSP6Iyw8zN9hEenSyJEjsWXLFkybNk3yUvLBFdEP1tN9GUQg0joBIfpC/eKl450n2G+zl45HIaJ9+/ZYsGABfvvtNyk1NdXhBMf8AxER+dKIsUOwYN13eO/LqWjSvLG/wyENmMPMmHD9eMxa8DH+zlyOGT+9hyl3XoXW7Vr4OzQiv2vZsiV++OEHLF26VOratasWV+IdACQJ9k33YRwBScspGE0BtBXsm+6F4xkAjBLsu8gLx6MQEB0djWeeeQb33HMPwsLCnJ7g1NbNJiIicoc5zIw+A3tg+JhBOO/iNLRp38rfIZEfRUZFYOQFQytHvhw9dAzLF63BmvT12JdxECey8pCfW+DVlaaI9CgqKgqPP/44HnroIURERGh5AZ4m2O80WP+hBi1fqGsAfC3QLw9AAjxfgaEvxF5wW8Xx1Be2DzHDhw+XgXM31N767uk+jh8/jnXr1nnt9xRhMBhw44034qWXXkJSUlKt75us3Ez5loeuxrwvlmsZHhERBZmWbZpj+HmDMXz0IAwY1gdR9SP9HRIFEJvNjtycPJzIzkXO8Vzle1YucioeFxYUwWqxwma1wWq1wWZTvqxWG2xWa8V3pa246CRKz5QBEiCh5rWc0q78oDRJypK1RmX5WqPRqHw3GSuXs636fFfXh2cPJ36dWNt+xPrVeu1a+U3kmtb1vlFLP5vNhuyc7BojaaMbxCIhtrFursOrf8/NzcXKlSuhtWuuuQavvvoqmjVr5o9P/r4FMEmg3yKIj8gPGVqOgBCdfrEC3ln+cYxgv/Vg8sGp5cuX6/Kj/Llz58qXXHKJZscbMmQIpk2bht69e0ufffaZ+hN0+VcLTJIkVV7wSBIASUK9iHAYDecuYiSDofJng8EAqeK7Y9u5nw0GAyRJcr3d4Li9xn4l9eNW3+7QJqkft/L3d/K9tosXkQuz2i/Gzl4+iu1TJAb3Lwjd+72qXpi6ezFaIwaIH7vyGq7KxZxslyHLMux2O+x2GbJsh91ur2hT2uWz3x3azvav8lx7lefKcmWfc889t6+qzz3Xdu4Yst0Ou3zuuVX3dfY7ZBk2mx1WixVWq1X5brNVPFa+WywW2Kw2WCxW2GzK96r9z26zWs89h5++uhZeLxyJjeMrvhKQ1CQBiY3j0SylCXr264qUVs38HSIFMKPRgKTkBCQlJwA9/B0NicjPz8PnX9a8zhzcYxQmXXCzbq8uV6xYIQ8bNkyz4/Xp0wfTpk3D4MGDpW+++Uaz41Yjel+7zKdRBCgtExBpgv289dGxaLZpoZeOR0GmefPmeO2113DVVVdJvXv3Fn5eg+hIdOzduvJGRTJIiI+LR0pKCyc3sK5vWmu9qXV6Ayt2My1Veb6zY3z7+U+YO+cPj/52ZrMJHbqmIrlpEuITGyEhKR4JjeOR2DgOiY0TkJgUj5jYhk5+34rfs3r6n4gCjizLFcmLigSF1Qqb1VoleWE7l7yoZZvVaoPVaoHVanNIsFRN1FRNqFS2yY4JnsrETLXkS/Xt1ZM21RM7Z7fLsgyjyQSz2QSjyQiT0QiT2QSTyVTx3Xjuu8kEo8mE+g0ilURDcgISk+MRHePpsvJERKEjKSkJL7/8Mm644QZUFn73j/YAkgX7pvswjoClVQIiGUA7wb7pXjheAoDBgn2ZgAgwvr45jYiIwMMPP4xHH30UUVFRbh8srnEMRl/R36Gte9ceGDPqfK/F6CsLfl5U5+RDu46tMWzUQAwdNRD9h/ZGZFSEl6MjokAiSRLMYWaYw8z+DoWIiHzE19flYWFhuPfee/H0008jOjpauummm3x6PAGiox9OA9jgy0AClVYJiDTBfvkA/vHC8SZB7Hc7Af7DoCquvPJKvP7662jZsqX0/PPP+zscTZ0pKcUzD7zq1nN69OmCa2+biKGjBijDPImIiIiIvODiiy/GW2+9hdTUVOmNN97wdzhnpQn2WwXA6sM4ApZWy3CmCfbzVv2HyYL95kApQkkBxBeZ1u7duyM9PR1z5syRWrZsGZLj/z//4BucyM4V6puUnID3v3oVv6z4CldMHsfkAxEREVEI8sV1eYcOHfD7779j/vz5NZa71wHRERDpvgwikGk1AkL0hfJG/Yd2APoJ9p3lheNRAIuPj8eLL76IW265BUajUW8nOM0UFRbjf2/OFOrbo08XfDrnHSQ2jvdtUEREREQUMqKjo/Hss8/i7rvvrnW5ez9rB6CJYN90H8YR0LQYAdEYSrEOEeleON41gv0OAljjheORxryRaTWZTLjvvvuQkZGB22+/XQrl5AMAfPPZDyguOqnar2PXVMz6/RMmH4iIiIjIK9flBoMBt9xyCzIyMvDggw9KOk0+AOIfqp8CsNGXgQQyLRIQoi9UAbxT/0E0AfEtvDPdgwLMeeedh3/++QfTpk2TYmNj9XqC09SCnxar9mkY3QDTf5jGteiJiIiIyCuGDh2KjRs34tNPP5USExP1fl2eJtiP9R9c0CIBkSbYbwUATxcNHwCgrWBfvy0cS/7Rtm1b/Prrr/jzzz+lTp066f0Ep5n8vEJs3/qvar87H74RTVNEVx0iIiIiIk8F69LkzZs3x3fffYeVK1dKvXr1CpRfkvUfvECLGhBa1n8QLT65DcAOF9uvBtAKQCSUlTJWgcNodMPdE3GDBg3w5JNP4oEHHkB4eHignOA0s3LJWsiy68FAiY3jccOdV2sUEREREVFokWsZmK33BIS78UVEROCRRx7Bo48+isjISH3/co7aAGgm2HeZLwMJdL4eAZEIoKNg33QPj2UCMFGwr6vik+dBGR3xIoAnALwNYJFnoZE/SJKEKVOmYM+ePXjsscckJh+cW7FIvRTK2EtHol5EuAbREBEREYWe2j4M0nsCwh0TJkzArl278Nxzz0kBlnwAxEf1nwSwyYdxBDxfJyDSBPsVAPjbw2ONBSBSGU+GUv+hNtc6adtfp4jIJ0ROxAMGDMC6deswc+ZMKTk5OdBOcJpasXitap9howdpEAkRERFRaLLbnScgDJIWM+brTuS6vEePHli+fDlmz54ttWjRIlCvy0VH9a8EYPNlIIHO11Mw3HmhPK3/cJVgv9UADtWyLQzAOCftf9QpItJckyZNMHXqVEyePBkGgyFQT3Ca+XfbHuRk5brsYzKbMGh4X40iIiIiIgo9JSWnnbZHRjTQOBLvSUhIwIsvvoibb745GJa791b9hxgAzQEkQJktEAZl1EQxgAMVX0G9UIJeRkB4Wv8hHM4TB8587WLb+QCinbQvdDsi0lR4eDgef/xx7N69G9ddd53E5IMYkdEPvft3R1SDKA2iISIiIgpNRUWFTtvjogNv6XOTyYT7778fe/bswW233RYMy923BpAi2DfdSdsQAC9DmZqRD2XlxyVQRuV/AeAnAIsB7IOSjEgHcA+AoKz+7ssERAKAToJ90z081hgAIunBcgCzXWy/10nbPihFKEmnxo8fj507d+KVV16RGjRoEOgnOE39tUp9itqwMQM1iISIiIgodBXWloCISdQ4Es+cf/752LZtG955551gWu5edPRDMYDNVR5fDOAvKKP9HwfQC4Da3ySq4njvAjgI4HUADd2IVfd8mYAQfaEKAWz18FgjBPv9BqXehDNdAYx20v4GPJ8eQj7QpUsXLF68GL/88ovUpk2bYDnBaerwgaOqfVj/gYiIiMi3aktAxDYMjBEQ7dq1w7x587Bw4UKpY8eOwXZdnibY72z9hy4ANgCYB6CfB8cNA/BfKCMm2nmwH13xZQIiTbCfN+o/tBLs95WLbQ84aTsKYKbb0ZBPRUdH47333sPWrVsxevToYDvBaSrnuOv6D0ajAV16dNAoGiIiIqLQdOrUyRptkiQhun6MH6IRFxUVhddeew3bt2/HuHHjgvW63J36D/dAST70qbZNrth+P5TSAV0BNAbQG8CbcF24sgWUEfltRQPWM18WoRR9oTyt/wAA9QX6nAGwoJZtKQCudtL+AIDSugZFvjFo0CAJAO655x5/hxLQykrLUFRY7LJPfGIcDAZ9V18mIiIiCnQnT9ZMQDSsHwuj0aTrm/pu3bpJAPDII4/4OxRfaQklASDiNtRMEpQDeAfAx3C+smI2lGkbuwB86mLfiQA+ATBSMBbd8tWdRTyAzoJ9071wvEyBPqsAlNWy7SMohSyr+hPAD54EFeDuh/J34d1nkFJb/QIAEhsnaBAJERERUeiSZRmnnayCEdOgkR+ioWrS3OhbPfmwGkAPAI/CefKhqs+gjL53ZQSA/7gRjy756uZyCNQLbABAEYAtXjjeXwJ9ttXSfieAC6u1ZQO42aOIAtszAN4GcCuASD/HElBqWwv5wCG1c472RBIQSU2YgCAiIiLypVOnT0GWa668GMsEhB6Ijuqv7i0AQwH868Zz0gX6TKxTNDriqwRED8F+K+CdAo/fQ32qRI6TtisBvFetrRzA5QCOeBBPCpSClyUAtgPo78G+tPYkgOcqft4M4JQfYwk4cTGJiK4fW6O9uLgYRcVFfoiodjlZJ1T7JDYOjMJHRERERIHqlJPpFwBHQOhEmpv9ZQAPA3io4md3HBTocyEAs5v71RVfJSDaC/b70UvHK8C5m+batK7ycyyA/0FJXFT9G9igfOq/2oNYTFDWdb0QQASUqShverA/rTQE8DmAF6u0pfsnlMBlMpqkPp0HO912NNOTnJb3ZR8TSUBwBAQRERGRL508XUsComGcxpFQNSlQakC442koqyjWhUjtwfoAmtRx/7rgqwTEYYE+x+G9BASgrJH6q4vtN0NJLOwEkAulSEjV8fLFUCqSfuFhHJeh5vwfi4f79LXLoPxdbqjWnq59KIGvTfOOTtuPZqoveaklsRoQHAFBRERE5EscAaFbaW72nwHgJQ+OV3MYtXPJHhzD73yVgPgZrqdWlEMZaeDN4f02KFMqPqtluwHAIAAdUfP33gVgMIDfvRDHWCdtq7ywX2+LBXALlGVQfwLQtNp2G/QZt+61btYOkpMSKJnH9JaAUB8BkZTMERBEREREvpSVneW0PaYBR0D4mTv1H3YCuMPD44m+4AGdmfJVAmIdlOEnzpIQRQDOBzDfB8e1QLmpHg2lvoSa3QCuBdAFSq0GbxjtpG2Rl/btiUYAngDwHZTCn1lQlnIZUkv/LVBeK3JTVEQDqXF89XwOkJ+fh5IzJX6IyDmhERBMQBARERH5jNVqxd79GTXajUYTmiam+CEiqiJNsJ8NwHWofcVFUdVH0demwMPj+JXJh/t+GcBCAFcB6ATgDJTaCN/A9ze2Syq+UgGMAtAXytqpkQDyAWQAWFbRx+bF47aFMleoqhIoCRl/uxs162QcATAHynSUqGrb0jWIKWi1btYex3NrjnjIzDyKdm1T/RBRTUUFxap9GsXFaBAJERERUWg6cHA/ysvLa7R3bNUV9cIjRFYVJN9oDscagq7MAbDJw+NJALoJ9lUfxqxjvkxAAMoL4emL4Yk9HzvMowAAHepJREFUFV8faXS8UU7aVkKZcuJviwH0AnAaypSTpQDWQHljPeikf7pmkQWhNs07YPXWJTXaM4/pJwFhsVhV+5jDArrILhEREZGu7drtfJXGnh0HahwJVePO9IvXvHC81lAWBVBTCrHVMnTL1wmIUONs+sVSzaNwbg2A8U7a05y0sf6Dh1o3c74QTMbePRg2JA0Gg69mP4mz2dQH/zABQUREROQbFosF+w/sq9FuNpnRrV0fP0REVaQJ9lsGZeq6VsfbAUD9U0Qd8/9dUPCQAIxw0q6XBERt0py0sf6Dh+JiEqRYJ0snFRUXYU/GLj9EVJPVKjACwsQcJREREZEv7NufAYu15mJ5HVv34PQL/xMdAfGLl453nmC/zV46nt8wAVE3EwBkA5CrfNnhvHLphip9rNDfyII0J23pGscQlHp3GuS0ff3GvzSOxDmrwBQMk5kJCCIiIiJf2LXH+YdSvToO0DgSqqYpxAtCpnvheAY4n8rvjB4WN/AIExB1MwBKUUt3GSG+vqsW2gBo5qQ9XeM4glJanwtgMtacwpBzIgcHDx3wQ0SOrFaBKRhMQBARERF5XfHJYhw4uL9Ge5g5HF3a9vJDRFRFmmC/PADbvHC83hBbgtMGpa5fQGMCom6eAjAISs2Hs18bnPSbVq3PEACDNYpRRJqTNtZ/8JLoBrFSv65DnW7TwygIjoAgIiIi8o/0FUud1uPq3KYnwsPqcfqFf4lOv1gBZZS7p8YI9luPAF+CE2ARyroqAbC2ymMJzpdp+QLeKUriK2lO2lj/wYtG9R+HtX8vgyw7npsOHzmE7JwsJCU29lNk6iMgTCajRpEQERERhY7DRw5hT8Zup9tqm8JLmkoT7LfcS8cTrf+w0EvH8yuOgPCOLqg5bKYIwN9+iMUdaU7a0jWOIaglNmos9Wjf3+k2f4+CUBsBwdEPRERERN5lt9uxZJnzafxNEpqjSztOv/CzZADtBPume+F4CRAfIc8EBFVyNkxnJZTClHpVW/2HZVoHEuxGDxjntH1Pxm4cPnJI42jOsdpcJyC4BCcRERGRd23eugl5+XlOt10xZgqMBiOnX/hXmmC/fAD/eOF4kyA2K+EEnE/5DzhMQHiHswSEt4bk+EqakzbWf/CBlOTWUodW3Wq0y7KM3/6Yj5KSEj9EpT4CgktwEhEREXnP6dOnsWbdaqfbenUciHYtOjH54H9pgv28Vf9hsmC/OVDu1QIeExDeMcxJm94TECOctG0GUKx1IKFgzMBLnLafPn0KCxbO1zgahWoNCE7BICIiIvKaFavSUV5eVqM9zByO8SOv8UNE5IRoAUpv3Ou1A9BPsO8sLxxPF5iA8FxH1FyS8ySUm3kRzwKwQMmgiXyVApjucdSs/6Cp1BadpV4dBzrddvDQAb/Ug7AxAUFERESkiX3792LHv9udbjtv0HjENozj6Af/awygvWDfdC8cTzTrdBDAGi8cTxeYgPBcmpO21RAfIjMZ7q1GEg6xdWJdaQugqZP2dA/3Sy5MGnsz4mKq56oUq9aswPGsYxpHRERERES+djzrOOYvmOt0W0JsEkb2u1DjiKgWoqMfCuCd+g+iCYhv4Z3pHrrABITnPKn/kAglGeCu9Do8p6o0J22s/+BjEfUipRsuvQdGQ83lLe12O+YvmIuysprD8nzFaHT99rfb9FxDlYiIiEj/CgsL8POvP8BitTjdftmo62A2hXH0gz6kCfZbAc8XGxgA8fvAbzw8lq4wAeE5T+o/dK/jMZfW8XlnpTlpY/0HDbRo0lYalzbJ6bai4iIs+GMebDZt6ssYjDUTIVXZmIAgIiIiqrOSMyX44Zc5KDnjvOB4zw790bVdLyYf9EPL+g+ixSe3AdjhYvvVAJ4E8BKA+wH08TAun+Mkb8+kQlkrtqoSABsFn78awD0AkgT7ywD2wfMhP2lO2tI93CcJGtHvQuw5tAM7922tsW3fgX34ee6PuHTcZTCbfLsMpvoIiKAotEtERESkOYvVgp9//QGFhQVOt7dIboNrLrodN+J+jSOjWiRCqe0nIt3DY5kATBTs66r45HmoOTqiEEBsXYLSChMQnnGWJVsDpahkdVEA+gLIBvBvRVsJgPd9E1qtWP/BzwySQTpVUixPnf4Yik7V/E/p4KED+OGn2fjPpVcgPDzcd3FwBAQRERGR18myjPm//YrjWcedbk+ITcJtVz6M8LB6HP2gH2mC/QoA/O3hscYCiBfoJ0Op/1Cba5207a9TREAKgI+grJS4H8BNAHxSJZ9TMDzjTv2HjwEsg/IPNtJnEalLc9LG+g8aqx/ZULrukrsgSc7/38k8dhTf/zALJSXOh+x5g9Hg+u1vs3MEBBEREZE7LBYL5v8+F/sO7HO6vUFkQ9wx8TE0iIpm8kFfRKdfrITn9R+uEuy3GsChWraFARjnpP2POsRjArAEwIUAIgB0BvBmHfYjhAkIz4gmIDrg3D+01VBGPvhLmpM21n/wg9QWnaUrxlwPCc7//8k5kYNv53yDkyd989KoTcFQW6aTiIiIiM7JL8jHN999id17djndHmYOx20THkFCbGMmH/QnTbCfp/UfwuE8ceDM1y62nQ8g2kn7QrcjAi5DzYKYzqumegETEHXXBECzam2lANY76fsczv2tn/JlUALSnLSlaxwDVRjW+3zpqgtvhUFy/lYsKMjHrNnfIL8g3+vH5hQMIiIiIu/Yk7EbX3/7BXLzcp1uNxiMuHH8fWiR3IbJB/1JANBJsG+6h8caA6CBQL9yALNdbL/XSds+1G1U+1gnbT4bHc8ERN05m5z/D4Dq6yheCGBCxc8fQxkB4S+pYP0H3RnYPU2aMv5eGI3OS7KcPFmMr2Z9ga1/b/HqcVVHQLAIJREREZFLdrsdy1YsxdzffkF5eXmt/SaefxM6t+3J5IM+iU6/KARQs4q8e0YI9vsNSr0JZ7oCGO2k/Q3UbXqIs30tqsN+hLAIZd0dgFJQsuoKFlnV+rQH8GXFz38BeECDuAAlOdIRyrAcI5SaEw1R+3yjpgBGAbBWPLYCyACQ49sw6ayeHfpLO/f/LU//6W2UW6rnsACLpRyLl/2JXXv+xdgxFyAmxvPitkaVERB2joAgIiIiqtWp06cw77dfkXnsaK19DJIB40dNxqAeI5h80K80wX7eqP/QSrDfVy62ObunPApgptvRKFMvUqq1lQBYV4d9CWECwjNfAni4yuPEKj9fBWAagDgA86EstXJGo7imA7jGjf6fOGnLRM0pJuRDnVp3l/Yd2SV/POd1nClzXibkaOYRzPz6cwwZNAy9e/aptYilCIPaMpx2JiCIiIiIqpNlGf/u3on0FctQUnK61n5REQ1ww6X3oH2rrkw+6JvoCAhP6z8AQH2BPmcALKhlWwqAq520PwClHIC7RjlpWwllCohPMAHhmccBtAMwvuLxAAAbocwjOptJ+hjAXVBWmtBKCZTsnA1KARELlFENlipfBgDmii9Tte8ygKUaxksV2jTvIB3JOiB/+P1UnCpxXnzSarUifcVS7N6zC2PPuwBxjURW8anJoLIKBqDUgVCbqkFEREQUKvbt34uVa1YgN/eEy34tktvgxsvuR6PoeCYf9C0eyqoPItK9cLxMgT6rUHNa/1kfoWYpgD8B/FDHeJxNv/DpfSDfEN4xFsDdUKY9JENZLmUjgPfgvCglkUvZecfkGb++i8zs2lbeURiNRvTp3Q+9uvdGVFSUW8cY3mUcDu474rLP3qINMIeZ3dovERERUbA5cvQIVq5ejmPH1e8fh/QcjctHXweTycx7Lf0bD+BngX5FABrB8ykYt0NJIrjyFoCHnLTfCeCDam3ZAPoCcH1R75wE4ASUEftV9YVyL+sTHAHhHX+gbmuuEjmVFNdEstms8uJ18/D76p9gs1md9rPZbPhr/Vps3LQeHVI7onfPPkhMTHLatzq1VTCU/dvB9AMRERGFqpycbKxcswIHDu5X7Ws2hWHi+Teif7fhEnCTBtGRF/QQ7LcCnicfAOB7AG8DqOeij7M6fFdC+XC7qnIAl0Ms+TCh4vmJah0BbKjysw1KPYghAs8TwgQEkU4ZjSYJAI6fOCp/s+BjHDq2t9a+NpsNO/7djh3/bkezps3Ru2cftG3TzmWNCJGpFVwJg4iIiEKNzWbDwUMHsGPnduzZu1voOXExibj5sgfQrHFLjnoILO0F+/3opeMVAHgOwCsu+rSu8nNsRd9b4Th7wVbRJrrC4gCIJR+qM1bE4DVMQBDpXHJCM8lut8vLNizAbyvmwGJ1XRPmaOYRHM08guiG0ejVsw86d+qCeuE1k6xqq2AAXAmDiIiIQsPZpMPuPbuwd/9elJfXNgXfkdlkxtDe52PsoMsQUS+SyYfAc1igz3F4LwEBAK9DSQhcWsv2mwF0gXLj3x5K7b6qigFMAvC7G8d8CsAcKKsjnvUKlOkWVU0DMK/K41IAO9w4jiq+SYgCSE5+ljxrwcfYd2SX8HMkSUJCQiKaN0tBSrMUNGvaHOHh4big/0Ts/Md1Vv/vY8sRExvtadhEREREumO1WpWkQ8Yu7Nu/TzjpACjLa/bvNhwXDLkcsQ3jeE8VuAZAGUVQ29Dgs9Mc5nv5uGYAH0JJNrhjF5TpGNs9PH5t9R96Adji4b5VD0xEAcQu2+W1W5dh0bpfkVfougKzM2cTEtOn/oCDGbWvWw0Am48sQ1y8V0ddEREREWnKbrejqLgI+QX5KMjPU74X5iM7Jxvl5e6tNihBQvcO/XDxsAlIimvCe6ng8ASAF1AzCVEEpUhlug+PPQrAMwCGqfTbDeBFAN/CO6srdgXwT7U2bxXadIlTMIgCjEEySABgt9vlbRkbsWzD726NiJBlGTk52ThTeka179Ytm5DcPBmREZEIDwuH2WwWWr6TiIiIyF/yC/KReSwTBYX5yC/IR2FhAex2z++p2rfsgnFpk9AiuY0E3O+FSEknXgawEMBVADoBOANgCYBvoNyU+9KSiq9UKMmIvlBqNUQCyAeQAWBZRR9vFmcb7qRtJXycfACYgCAKWAaDoTLrfiTrgJy+4Xds+ndtrStmVOeqQOVZK9euQv0dEXUPkoiIiCiAGSQDUlt0xugB49C+VVfpbjzp75DINzZVfPnLnoovtSU6vcVZAmK5FgdmAoIoCDRv3EoCgKJTBfKqzYuxastinCopdvmcKvmLWsl22TsBEhEREQUIg8GI1JRO6NGhP7ql9kGDqGhJGaVPFDScTflgAoKI3BNdP1YCAIu1XN6WsQm7D25HxqGdOFGQVaOvyAgIWeYqGERERBT8jAYjUlt2QY/2StKhfmQD1negYNURNZfkPAlgsxYHZwKCKAiZTWEO/2kWFufJGYf/RcbhHcg49C9yC7MhcQQEERERhbCGUTFISW6N7u37oWu73oiKqM+kA4WCNCdtq+HdGhO1YgKCKATEVFseKr8oV14/9wIc3Zft8nl2JiCIiIgogJlNZsTHNkZSXBMkNkpGUqPkip+bIKJeJBMOFIr8Vv8BYAKCKCQ1io6Xxo4dq5pduHTE1UhMjsepkmJYbRaUlZd6pYo0ERERkS81a9wSHVp2Q6PoeIfC3UTkv/oPABMQRCFLZDnN1JQu6N69O//TJiIiIiIKfKkAkqu1lQDYqFUA6ncgRBSUjEajah+bTZOpYERERERE5HvOpl+sAWBx0h4FpV5ER28GwAQEUYhiAoKIiIiIKKS4U//hYwDLAPwNINJbATABQRSimIAgov9v735jLCvrO4B/d3Zn6C5ZMFChoGIpUIGqaFsF01Bo0zbKCwtJs8k2pi9opcSmidqkhghp2hclpWmtb1rpO9HY0NZAFZo1WpWuQF2lQfuHNEQQXJY/8k8s7C47u9MX5269e+fcuWfuvfPcmXk+n+QJM+c+53d+98Vu9nx5znMAgKp0DSAuTLK79/O9aR7TmAoBBFRKAAEAANU4O8nrB44dSrKvZe4f50dZwY3TbEIAAZUSQAAAQDVOajn27SSHB45dlWRX7+db06yAmBoBBFRKAAEAANV4NMnTA8eeGvj9TUlu6/389SQfmnYTAgiolAACAACqctvA72f0/bw7yd4kpye5K8kvJzk47Qa2TbsgsDEIIAAAoCo3JLkgydW93y9L8s0kr01yTu/YrUl+L8ma3AhYAQGVEkAAAEBVjia5Jsl7ktyd5JEkF6d5y8Wnk1ya5PqsUfiQWAEB1RJAAABAlfb0RnFWQEClBBAAAEBJAgiolAACAAAoSQABlRJAAAAAJQkgoFJzc6P/+AsgAACAaRFAQKWsgAAAAEoSQEClBBAAAEBJAgiolAACAAAoSQABleoSQCwuLhboBAAAqIEAAiplBQQAAFCSAAIqJYAAAABKEkBApQQQAABASQIIqJQAAgAAKEkAAZUSQAAAACUJIKBSAggAAKAkAQRUSgABAACUJICASgkgAACAkgQQUCkBBAAAUJIAAio1Nzf6j78AAgAAmBYBBFTKCggAAKAkAQRUSgABAACUJICASgkgAACAkgQQUCkBBAAAUJIAAiolgAAAAEoSQEClBBAAAEBJAgiolAACAAAoSQABlRJAAAAAJQkgoFJdAojFxcUCnQAAADUQQEClrIAAAABKEkBApQQQAABASQIIqJQAAgAAKEkAAZUSQAAAACUJIKBSc3Oj//gLIAAAgGkRQECltm3bNnKOt2AAAADTIoCASs3Pz4+cc+TIkQKdAAAANRBAQKUEEAAAQEkCCKjUwsLCyDkCCAAAYFoEEFApKyAAAICSBBBQKQEEAABQkgACKiWAAAAAShJAQKUEEAAAQEkCCKiUTSgBAICSBBBQKSsgAACAkgQQUCkBBAAAUJIAAiq1devWLXNzK/8VIIAAAACmRQABFRu1CkIAAQAATIsAAio2aiNKAQQAADAtAgiomBUQAABAKQIIqJgAAgAAKEUAARUbFUAcO3YsR48eXSrUDgAAsIkJIKBiXsUJAACUIoCAigkgAACAUgQQULFRb8FIBBAAAMB0CCCgYlZAAAAApQggoGICCAAAoBQBBFRMAAEAAJQigICKCSAAAIBSBBBQMZtQAgAApQggoGJWQAAAAKUIIKBiAggAAKAUAQRUTAABAACUIoCAigkgAACAUgQQUDGbUAIAAKUIIKBiVkAAAAClCCCgYgIIAACgFAEEVEwAAQAAlCKAgIoJIAAAgFIEEFAxm1ACAAClCCCgYlZAAAAApQggoGICCAAAoBQBBFRMAAEAAJQigICKCSAAAIBSBBBQMZtQAgAApWyZdQPA7Bw4cGDpkUceycLCQubn5///v/0/79y5M9u3b/d3BQAAAAAAAAAAAAAAAAAAAAAAAAAAAAAAAAAAAAAAAAAAAAAAAAAAAAAAAAAAAAAAAAAAAAAAAAAAAAAAwMxtmXUDwJo7PcnFSV6bZGeSHyR5OslTvXFwzLpbklyS5I1JXpPkpV7dB5O8MlnLAAAAwEZwQZI/TfJokqUVxmKSe5L8QZLzO9Y+L8nfJnlySM0jSe5Lcl2Sk6fybQAAAIB15b1JvpaVQ4eVxp1Jzh1S+5QktyQ5vIp6TyS5erpfEQAAAJiVs5J8NuMHD/3jYJKbBuq/Icn/TFDzo1P/xgAAAEBRu5K8kOErEP48ya+kWdnwE0l+Nk0g8OyQc46Pj/Xqn5/kuy2fP5nm0Y23pAlALktyc5L/HVLv/Wvx5QEAAIC194Ekx7L8Zv/5JNcnOWmFc1+X5PGWc/vHrUkOtBz/apIfH1L3l9LsAzF4zg+TnD3OlwQAAABm54a0hwZfThMudHHdkBorjX1JdrTUmk+zR8ShFc69cXVfEQAAAJil3077Df7taYKArs4YUmfYOJzmLRiDtib5Uofz962iNwAAAGCG3pH2VQZ3JJkbo96rLbWGjT8bUuOmjuc/M0Z/AAAAQGGnpn3fhod7n63WaS21VgoPdrbUOC/tez60jRfH6BEAANgExvm/pcDs/EmaV2L2W0rym0l+MEa9C1cx9zNpNpIcdHWSbR1rPLGK6wEAAAAz8NYki1m+quCTE9S8tqXesPGuITXuXEWNv56gVwAAAKCAv8/yG/pDSV4/Qc1bWmq2jcdXqHF7xxpLafavAAAAKuQRDNgYzkpyTcvxO5Lsn6DuxR3nfXmFzx7oWONTSb7RcS4AAAAwA+9P+4qCX5ug5pYkzw2pOziuXaHOa5J8b8T5e5PsmKBXAAAAoICPZ/lN/Xcz2SqmN7fUHDbOG1HrbUm+1XLeoSQ3J1mYoE8AAGAT6LpzPTBbdyS5LM2jGNuSPJ3mxv7YBDUv7zjviSTfGTHnwSQ/l+SKJJekeV3nw0n2JHl+3AYBAACAje8z6bb64e9m1SAAALB52IQS6tV1BcQ9a9oFAAAAsGmdm+77P3R9UwYAAMBQVkBAna7oOO/7Sf57LRsBAADqIICAOnUNIPauaRcAAEA1BBBQp64BxL+uaRcAAADApvWGdN//4e0z6hEAAADY4N6XbuHDC7FKCgAAmBI3F1CfKzvOuzfJsTXsAwAAqIgAAupj/wcAAABgTZ2d7vs/XDqjHgEAgE1o26wbAMZ2epJTkzyW5GjHc7qufng5yQPjNNXnvUkuStPjc716X52wJgAAAFDAQpIPJnkoP1qpcDDJl5L8TIfzP5Fuqx++OGGfl7bUXEwTRgAAAADr2JlJ9mV4aHA4yTtH1OgPLlYaN03Y6ydbar4c+84AAADAurY9zSMMo4KD/1ihxpkdzj8+fnGCXk9JEzYM1twzQU0AAACggD9K9/DgjCE1rut4/qEkJ03Q6/VD6l4zQU0AAABgjc0neSHdA4hhj2F8oeP5k7x+c0eS/S01H06ydYK6SXJOkruTvJLkP+MtHQAAADBVV6Z7+LCY5LSWGqclOdKxxt9M0OtNQ2peNUHNpHljz8MDNb82YU0AAKAgG8LB+nfBKuben+T5luO70v21u/tXcb1+lyS5oeX455L885g1j7smyfkDx45MWBMAAChIAAHr38kd5y2l2Sti0PYkH13F9Z5cxdzjTknyj71r9duf5HfGqDfo3S3HrIAAAACAKdqVbo9O/MWQ8z/S8fzj4/dX2d8pSfa21Dmc6e3T8FhL/Une1AEAAAAM+Mkkx7JyaPCxNJtVDnpdVreB5VKSO1fR21lJ9rXUOJrkt1ZRZyXnt9R/OcnClOoDAAAAPf+S9rDg/iTvGHLOaUkebDnn6SG1+l/DeVGHnn4jybMt5x/ufTYtv9tyjT1TrA8AAAD0vDXJq1l+I/5Skmtz4mqALUnek+TRlvmPJ3ljkg+3fNY/9vdqbBno49Qku5N8Y8h5P0zyq9P60j3/0HKdP5zyNQAAAICea9M82tB24/9CkvvSrJR4Ysicbyc5r6/esFdm9o8n0+zvsKd3/kqv8rw7yTlT/s5b0r7K4uenfB0AAACgz64kz2V1ezosJbktyY6WepcneWCMeoMhxe4pfbdRj4e0jcV4IwYAAABM3RlJ/irJi1n5xvxYks9l9Jso5pK8L8ldaTZ37HLT/2qazSp/Pe2bX47jLzteu23815R6AAAA1sjg893AxrEjzasoL0/yU0lOT3Mz/kySf0/z2MRDq6z5Y0muTHJJkjP7xpE0gcejSb6V5Cu960zTjt51+1dq3Jzlm2x+PMnn+34/lCaAeHHK/QAAAAAVGLb/w9tn2RQAAACwubwly8OHF9M8MgIAAGww/iEPrFdXtBzbm2ZvCwAAYIMRQADrVVsAcU/xLgAAAIBNre2VnIMbUgIAAACM7aIsDx9eSrJ1lk0BAADj8wgGsB5d2XLs3iRHC/cBAABMiQACWI/s/wAAAACsuQNZ/gjGu2baEQAAALCp/HSWhw8vJ5mfZVMAAMBkPIIBrDdtj1/cl+RIy/GT0+wXcdFaNgQAAABsPp/O8hUQN46Y+2qSHUW6AwAAADaF72V5AHF5y7wL07wVYynJV4p1BwAAAGx4Z2d5+HAwyUktc2/vm/MLpRoEAAAANr5zszyA+HrLvKv6Pv9Ese4AAACATeOpnBhA/NPA529K8mzvs39Lsr1odwAAAMCmcEtODCDu7/tsd5Jnesc/HxtPAgAAAGPamuSOnBhCfDPJYznxsYuts2oQAAAA2DzeneSuJN9J8kqSh5J8Ksk7Z9kUAAAAAAAAAAAAAAAAAAAAAAAAAAAAAAAAAAAAAAAAAAAAAAAAAAAAAAAAAAAAAAAAAAAAAAAAAAAAAAAAAAAAAAAAAAAAAAAA69j/ASCLvRrC+Yy4AAAAAElFTkSuQmCC;" vertex="1" parent="1">
          <mxGeometry x="40" y="10" width="296" height="232.65" as="geometry" />
        </mxCell>
        <mxCell id="irRoewjukGV-PkNl7UgP-17" value="Context Vector&lt;br&gt;or&lt;br&gt;Tought Vector" style="text;html=1;strokeColor=none;fillColor=none;align=center;verticalAlign=middle;whiteSpace=wrap;rounded=0;fontStyle=1" vertex="1" parent="1">
          <mxGeometry x="358" y="230" width="104" height="30" as="geometry" />
        </mxCell>
        <mxCell id="irRoewjukGV-PkNl7UgP-19" value="Palavra da Sequência" style="text;html=1;strokeColor=none;fillColor=none;align=center;verticalAlign=middle;whiteSpace=wrap;rounded=0;fontStyle=1" vertex="1" parent="1">
          <mxGeometry x="80" y="250" width="70" height="30" as="geometry" />
        </mxCell>
      </root>
    </mxGraphModel>
  </diagram>
</mxfile>
